G04 #@! TF.GenerationSoftware,KiCad,Pcbnew,(5.1.5-0-10_14)*
G04 #@! TF.CreationDate,2020-04-08T11:50:53-04:00*
G04 #@! TF.ProjectId,FEA,4645412e-6b69-4636-9164-5f7063625858,rev?*
G04 #@! TF.SameCoordinates,Original*
G04 #@! TF.FileFunction,Soldermask,Bot*
G04 #@! TF.FilePolarity,Negative*
%FSLAX46Y46*%
G04 Gerber Fmt 4.6, Leading zero omitted, Abs format (unit mm)*
G04 Created by KiCad (PCBNEW (5.1.5-0-10_14)) date 2020-04-08 11:50:53*
%MOMM*%
%LPD*%
G04 APERTURE LIST*
%ADD10R,4.440000X1.400000*%
%ADD11R,1.400000X4.440000*%
%ADD12R,2.400000X2.000000*%
%ADD13R,1.200000X1.150000*%
%ADD14R,1.000000X1.950000*%
%ADD15C,0.100000*%
%ADD16R,1.000000X1.500000*%
%ADD17R,1.150000X1.200000*%
%ADD18R,1.200000X1.200000*%
%ADD19R,1.300000X1.600000*%
%ADD20R,1.600000X1.300000*%
%ADD21R,2.100000X2.100000*%
%ADD22O,2.100000X2.100000*%
%ADD23R,0.900000X1.300000*%
%ADD24R,1.300000X0.900000*%
%ADD25R,4.400000X2.400000*%
%ADD26R,2.400000X4.400000*%
%ADD27R,2.400000X0.900000*%
%ADD28R,2.000000X2.400000*%
%ADD29R,4.210000X1.400000*%
%ADD30R,1.400000X4.210000*%
%ADD31R,1.943000X1.162000*%
%ADD32R,1.620000X1.020000*%
%ADD33R,1.100000X1.700000*%
%ADD34C,1.350000*%
%ADD35C,1.400000*%
%ADD36R,1.162000X1.800000*%
%ADD37R,1.400000X1.900000*%
%ADD38R,2.400000X3.200000*%
%ADD39C,3.100000*%
%ADD40R,1.924000X1.924000*%
%ADD41C,1.924000*%
%ADD42R,1.900000X1.700000*%
%ADD43R,2.400000X1.100000*%
%ADD44R,1.500000X1.000000*%
%ADD45R,2.200000X1.900000*%
%ADD46C,2.000000*%
%ADD47R,4.400000X0.780000*%
%ADD48C,2.432000*%
%ADD49C,2.400000*%
%ADD50O,4.400000X2.400000*%
%ADD51C,2.100000*%
%ADD52R,1.950000X1.000000*%
%ADD53R,0.900000X2.400000*%
G04 APERTURE END LIST*
D10*
X110950000Y-96525000D03*
D11*
X104150000Y-98025000D03*
D10*
X105750000Y-96525000D03*
X105750000Y-123525000D03*
D11*
X104250000Y-122025000D03*
X160450000Y-121925000D03*
D10*
X158850000Y-123525000D03*
D11*
X160550000Y-98025000D03*
D10*
X159050000Y-96525000D03*
D11*
X104150000Y-115825000D03*
D10*
X147220000Y-96525000D03*
X153265000Y-96525000D03*
X110950000Y-123495000D03*
X116995000Y-123495000D03*
X123040000Y-123495000D03*
X129085000Y-123495000D03*
X135130000Y-123495000D03*
X141175000Y-123495000D03*
X147220000Y-123495000D03*
X153265000Y-123495000D03*
D11*
X104150000Y-109925000D03*
D10*
X141250000Y-96525000D03*
D12*
X115650000Y-116350000D03*
X111650000Y-116350000D03*
D13*
X115850000Y-105300000D03*
X114350000Y-105300000D03*
D14*
X151035000Y-112925000D03*
X151035000Y-107525000D03*
D15*
G36*
X103550000Y-118500000D02*
G01*
X99650000Y-118500000D01*
X99650000Y-114100000D01*
X103550000Y-114100000D01*
X103550000Y-118500000D01*
G37*
D16*
X126040000Y-106675000D03*
X125090000Y-104075000D03*
X112180000Y-104030000D03*
X113130000Y-106630000D03*
D12*
X115650000Y-113950000D03*
X111650000Y-113950000D03*
D13*
X115100000Y-106650000D03*
X113600000Y-106650000D03*
X110055000Y-111305000D03*
X110055000Y-109830000D03*
D17*
X112180000Y-104580000D03*
X112180000Y-106080000D03*
D13*
X127950000Y-106700000D03*
X126450000Y-106700000D03*
X123190000Y-109800000D03*
X123190000Y-111420000D03*
D17*
X125100000Y-104600000D03*
X125100000Y-106100000D03*
D13*
X127650000Y-105350000D03*
X129150000Y-105350000D03*
D17*
X132750000Y-104150000D03*
D13*
X149610000Y-109550000D03*
X148110000Y-109550000D03*
D17*
X151050000Y-109475000D03*
X151050000Y-110975000D03*
D13*
X149600000Y-110900000D03*
X148100000Y-110900000D03*
D17*
X145220000Y-117560000D03*
D13*
X156800000Y-111100000D03*
X123300000Y-120550000D03*
X124800000Y-120550000D03*
X128000000Y-114300000D03*
X129500000Y-114300000D03*
X131100000Y-120500000D03*
X129600000Y-120500000D03*
D17*
X149800000Y-101950000D03*
X149800000Y-100450000D03*
X149700000Y-119950000D03*
X149700000Y-118450000D03*
X151200000Y-100450000D03*
X151200000Y-101950000D03*
X151200000Y-119950000D03*
X151200000Y-118450000D03*
X158300000Y-100400000D03*
X158300000Y-101900000D03*
X158200000Y-119850000D03*
X158200000Y-118350000D03*
X156900000Y-100400000D03*
X156900000Y-101900000D03*
X156800000Y-118350000D03*
X156800000Y-119850000D03*
D18*
X107855000Y-107655000D03*
D19*
X113130000Y-110530000D03*
X113130000Y-108330000D03*
X111600000Y-100100000D03*
X111600000Y-102300000D03*
X126950000Y-110550000D03*
X126950000Y-108350000D03*
X124400000Y-100100000D03*
X124400000Y-102300000D03*
X140950000Y-104860000D03*
X140950000Y-107060000D03*
X140860000Y-115640000D03*
X140860000Y-113440000D03*
D20*
X152900000Y-101000000D03*
X155100000Y-101000000D03*
X152900000Y-119100000D03*
X155100000Y-119100000D03*
D21*
X138690000Y-126200000D03*
D22*
X136150000Y-126200000D03*
X133610000Y-126200000D03*
X131070000Y-126200000D03*
X128530000Y-126200000D03*
X125990000Y-126200000D03*
D23*
X135150000Y-114900000D03*
X136650000Y-114900000D03*
X135150000Y-105550000D03*
X136650000Y-105550000D03*
D24*
X135200000Y-113550000D03*
X135200000Y-112050000D03*
X135200000Y-107050000D03*
X135200000Y-108550000D03*
X106905000Y-102505000D03*
X114800000Y-101650000D03*
D23*
X127540000Y-101200000D03*
X126040000Y-101200000D03*
D24*
X131250000Y-104150000D03*
X135550000Y-103150000D03*
X146600000Y-105800000D03*
X137950000Y-107000000D03*
X137950000Y-105500000D03*
X155200000Y-104150000D03*
X139450000Y-107020000D03*
X139450000Y-108520000D03*
X139420000Y-113450000D03*
X139420000Y-111950000D03*
X155200000Y-116200000D03*
X137930000Y-113440000D03*
X137930000Y-114940000D03*
X148290000Y-116060000D03*
D23*
X156800000Y-109600000D03*
X122800000Y-116800000D03*
X121300000Y-116800000D03*
D24*
X146700000Y-101950000D03*
X146700000Y-100450000D03*
X127300000Y-117700000D03*
X127300000Y-116200000D03*
X146650000Y-119950000D03*
X146650000Y-118450000D03*
X148300000Y-101950000D03*
X148300000Y-100450000D03*
X148200000Y-119950000D03*
X148200000Y-118450000D03*
D25*
X100950000Y-101100000D03*
X100950000Y-106900000D03*
D26*
X116600000Y-93280000D03*
X122400000Y-93280000D03*
X128550000Y-93290000D03*
X134350000Y-93290000D03*
D25*
X163700000Y-108650000D03*
X163700000Y-102850000D03*
X163650000Y-111750000D03*
X163650000Y-117550000D03*
D27*
X124800000Y-118000000D03*
X124800000Y-116730000D03*
D24*
X117950000Y-101800000D03*
D28*
X142830000Y-108860000D03*
X142830000Y-104860000D03*
X142810000Y-111640000D03*
X142810000Y-115640000D03*
D29*
X179600000Y-115185000D03*
X179600000Y-100615000D03*
D30*
X172755000Y-107900000D03*
X172800000Y-102000000D03*
D29*
X174200000Y-100615000D03*
D30*
X172800000Y-113800000D03*
D29*
X174200000Y-115200000D03*
D30*
X186500000Y-102000000D03*
D29*
X185100000Y-100615000D03*
D30*
X186500000Y-113800000D03*
D29*
X185100000Y-115200000D03*
D24*
X179300000Y-113500000D03*
D23*
X178250000Y-106000000D03*
X179750000Y-106000000D03*
X181950000Y-109800000D03*
D17*
X183400000Y-103950000D03*
D15*
G36*
X167450000Y-101200000D02*
G01*
X171350000Y-101200000D01*
X171350000Y-105600000D01*
X167450000Y-105600000D01*
X167450000Y-101200000D01*
G37*
D13*
X176000000Y-102400000D03*
D25*
X169100000Y-108000000D03*
X169100000Y-113800000D03*
X189900000Y-111200000D03*
X189900000Y-105400000D03*
D13*
X177750000Y-112700000D03*
D17*
X174300000Y-118300000D03*
X174300000Y-122850000D03*
D12*
X176600000Y-117600000D03*
D17*
X176500000Y-125350000D03*
X178000000Y-125350000D03*
D24*
X174750000Y-113450000D03*
X169100000Y-124950000D03*
D23*
X171950000Y-123500000D03*
D24*
X179550000Y-122350000D03*
X179550000Y-123850000D03*
X181100000Y-122400000D03*
X181100000Y-123900000D03*
X179600000Y-119650000D03*
X179600000Y-121150000D03*
X181200000Y-121150000D03*
X181200000Y-119650000D03*
D31*
X176396500Y-108005000D03*
X181603500Y-106735000D03*
X176396500Y-105465000D03*
D32*
X172520000Y-121150000D03*
X172520000Y-122100000D03*
X169900000Y-121150000D03*
X169900000Y-122100000D03*
D33*
X184850000Y-105400000D03*
X186750000Y-105400000D03*
D15*
G36*
X187966206Y-119762043D02*
G01*
X187400521Y-120327728D01*
X186163084Y-119090291D01*
X186728769Y-118524606D01*
X187966206Y-119762043D01*
G37*
D34*
X184271573Y-122219239D02*
X184483705Y-122007107D01*
X187807107Y-118683705D02*
X188019239Y-118471573D01*
D35*
X185774174Y-124923922D02*
X185385266Y-124535014D01*
X190723922Y-119974174D02*
X190335014Y-119585266D01*
D36*
X124250000Y-86675000D03*
X125520000Y-86675000D03*
X126790000Y-86675000D03*
X128060000Y-86675000D03*
X129330000Y-86675000D03*
X130600000Y-86675000D03*
X121750000Y-81475000D03*
X123020000Y-81475000D03*
X124290000Y-81475000D03*
X125560000Y-81475000D03*
X126830000Y-81475000D03*
X128100000Y-81475000D03*
X129370000Y-81475000D03*
X130650000Y-81475000D03*
X123050000Y-86675000D03*
X121750000Y-86675000D03*
D20*
X130125000Y-35075000D03*
X130125000Y-38375000D03*
D21*
X128900000Y-55970000D03*
D22*
X128900000Y-58510000D03*
X128900000Y-61050000D03*
D37*
X138425000Y-49575000D03*
D38*
X100175000Y-80825000D03*
D39*
X104075000Y-77125000D03*
D28*
X151625000Y-56275000D03*
X151625000Y-60275000D03*
D20*
X134200000Y-33500000D03*
X134200000Y-36800000D03*
D40*
X156350000Y-36980000D03*
D41*
X156350000Y-39520000D03*
D42*
X145570000Y-80070000D03*
D43*
X115505000Y-39120000D03*
D32*
X141060000Y-77975000D03*
X138440000Y-77975000D03*
X138440000Y-78925000D03*
D44*
X145425000Y-42025000D03*
X142825000Y-41075000D03*
X142825000Y-40125000D03*
X132175000Y-36475000D03*
X132175000Y-37425000D03*
X134775000Y-38375000D03*
D45*
X106350000Y-85800000D03*
X106450000Y-70850000D03*
D27*
X114650000Y-73050000D03*
X114650000Y-74161100D03*
X114650000Y-75272200D03*
X114650000Y-76383300D03*
X114650000Y-77494400D03*
X114650000Y-78605500D03*
X114650000Y-79716600D03*
X114650000Y-80827700D03*
X114650000Y-81938800D03*
X114650000Y-83049900D03*
D46*
X111150000Y-73250000D03*
X111150000Y-83400000D03*
D44*
X129175000Y-41950000D03*
X126575000Y-41950000D03*
X129175000Y-43850000D03*
D25*
X101375000Y-46950000D03*
D47*
X101375000Y-44050000D03*
D25*
X101375000Y-41150000D03*
X101375000Y-38500000D03*
X101375000Y-32700000D03*
D48*
X151425000Y-41800000D03*
X151425000Y-34800000D03*
D49*
X153925000Y-40550000D03*
X153925000Y-36050000D03*
D46*
X133760000Y-58500000D03*
X133760000Y-55960000D03*
X133760000Y-53420000D03*
X133760000Y-50880000D03*
X133760000Y-61040000D03*
X133760000Y-63580000D03*
X133760000Y-66120000D03*
X131220000Y-50880000D03*
X128680000Y-50880000D03*
X126140000Y-50880000D03*
X123600000Y-50880000D03*
X121060000Y-50880000D03*
X118520000Y-50880000D03*
X115980000Y-50880000D03*
X113440000Y-50880000D03*
X110900000Y-50880000D03*
X108360000Y-50880000D03*
X105820000Y-50880000D03*
X103280000Y-50880000D03*
X100740000Y-50880000D03*
X131220000Y-66120000D03*
X128680000Y-66120000D03*
X126140000Y-66120000D03*
X123600000Y-66120000D03*
X121060000Y-66120000D03*
X118520000Y-66120000D03*
X115980000Y-66120000D03*
X113440000Y-66120000D03*
X110900000Y-66120000D03*
X108360000Y-66120000D03*
X105820000Y-66120000D03*
X103280000Y-66120000D03*
X100740000Y-66120000D03*
D13*
X139940000Y-79450000D03*
X141440000Y-79450000D03*
D17*
X141060000Y-81620000D03*
D13*
X144170000Y-78140000D03*
D17*
X147310000Y-80070000D03*
X147025000Y-75175000D03*
X145500000Y-75175000D03*
D13*
X145725000Y-42875000D03*
X144225000Y-42875000D03*
X148475000Y-40125000D03*
X144600000Y-38625000D03*
X146100000Y-38625000D03*
X134775000Y-34950000D03*
X136275000Y-36475000D03*
X137775000Y-36475000D03*
X128600000Y-39850000D03*
X130100000Y-39850000D03*
X124575000Y-61050000D03*
X126075000Y-61050000D03*
X123550000Y-43850000D03*
X125050000Y-43850000D03*
X126575000Y-45500000D03*
X128075000Y-45500000D03*
D23*
X139790000Y-78010000D03*
X141290000Y-78010000D03*
D24*
X147900000Y-58075000D03*
X149575000Y-59575000D03*
X149575000Y-58075000D03*
D23*
X138425000Y-43575000D03*
X141400000Y-45150000D03*
X148325000Y-42150000D03*
X144250000Y-41325000D03*
X145750000Y-41325000D03*
X137700000Y-38375000D03*
X133500000Y-38375000D03*
X135000000Y-38375000D03*
X128300000Y-38375000D03*
X114005000Y-35395000D03*
X117950000Y-40900000D03*
D24*
X151525000Y-47750000D03*
X119025000Y-69525000D03*
D23*
X123600000Y-41950000D03*
D24*
X129175000Y-42225000D03*
X129175000Y-43725000D03*
D15*
G36*
X153101777Y-74415507D02*
G01*
X155859493Y-77173223D01*
X152748223Y-80284493D01*
X149990507Y-77526777D01*
X153101777Y-74415507D01*
G37*
D23*
X141425000Y-51075000D03*
D50*
X147475000Y-63310000D03*
X147475000Y-65850000D03*
X147475000Y-68390000D03*
X147475000Y-70930000D03*
D51*
X118550000Y-73500000D03*
X118550000Y-43500000D03*
D41*
X139820000Y-55960000D03*
X139820000Y-58500000D03*
X139820000Y-61040000D03*
X137280000Y-61040000D03*
X137280000Y-58500000D03*
X137280000Y-55960000D03*
D23*
X171550000Y-86300000D03*
X170050000Y-86300000D03*
D17*
X174500000Y-80350000D03*
X174500000Y-81850000D03*
D11*
X164425000Y-85250000D03*
D10*
X165925000Y-92050000D03*
D11*
X164425000Y-90450000D03*
X191425000Y-90450000D03*
D10*
X189925000Y-91950000D03*
X189825000Y-35750000D03*
D11*
X191425000Y-37350000D03*
D10*
X165925000Y-35650000D03*
D11*
X164425000Y-37150000D03*
D10*
X183725000Y-92050000D03*
D11*
X164425000Y-48980000D03*
X164425000Y-42935000D03*
X191395000Y-85250000D03*
X191395000Y-79205000D03*
X191395000Y-73160000D03*
X191395000Y-67115000D03*
X191395000Y-61070000D03*
X191395000Y-55025000D03*
X191395000Y-48980000D03*
X191395000Y-42935000D03*
X164425000Y-54950000D03*
D44*
X171930000Y-84970000D03*
X171930000Y-84020000D03*
X174530000Y-83070000D03*
D28*
X184250000Y-80550000D03*
X184250000Y-84550000D03*
D17*
X173200000Y-80350000D03*
X173200000Y-81850000D03*
D52*
X180825000Y-45165000D03*
X175425000Y-45165000D03*
D15*
G36*
X188900000Y-93650000D02*
G01*
X188900000Y-97550000D01*
X184500000Y-97550000D01*
X184500000Y-93650000D01*
X188900000Y-93650000D01*
G37*
D44*
X174575000Y-70160000D03*
X171975000Y-71110000D03*
D28*
X181850000Y-80550000D03*
X181850000Y-84550000D03*
D13*
X172480000Y-84000000D03*
X173980000Y-84000000D03*
D17*
X174600000Y-68250000D03*
X174600000Y-69750000D03*
X177700000Y-73010000D03*
X179320000Y-73010000D03*
D13*
X172500000Y-71100000D03*
X174000000Y-71100000D03*
D17*
X173250000Y-68550000D03*
X173250000Y-67050000D03*
D13*
X172050000Y-63450000D03*
D17*
X177450000Y-46590000D03*
X177450000Y-48090000D03*
D13*
X177375000Y-45150000D03*
X178875000Y-45150000D03*
D17*
X178800000Y-46600000D03*
X178800000Y-48100000D03*
D13*
X185460000Y-50980000D03*
D17*
X179000000Y-39400000D03*
X188450000Y-72900000D03*
X188450000Y-71400000D03*
X182200000Y-68200000D03*
X182200000Y-66700000D03*
X188400000Y-65100000D03*
X188400000Y-66600000D03*
D13*
X169850000Y-46400000D03*
X168350000Y-46400000D03*
X187850000Y-46500000D03*
X186350000Y-46500000D03*
X168350000Y-45000000D03*
X169850000Y-45000000D03*
X187850000Y-45000000D03*
X186350000Y-45000000D03*
X168300000Y-37900000D03*
X169800000Y-37900000D03*
X187750000Y-38000000D03*
X186250000Y-38000000D03*
X168300000Y-39300000D03*
X169800000Y-39300000D03*
X186250000Y-39400000D03*
X187750000Y-39400000D03*
D18*
X178155000Y-88345000D03*
D20*
X178430000Y-83070000D03*
X176230000Y-83070000D03*
X168000000Y-84700000D03*
X170200000Y-84700000D03*
X178450000Y-69250000D03*
X176250000Y-69250000D03*
X168000000Y-71800000D03*
X170200000Y-71800000D03*
X172760000Y-55250000D03*
X174960000Y-55250000D03*
X183540000Y-55340000D03*
X181340000Y-55340000D03*
D19*
X168900000Y-43300000D03*
X168900000Y-41100000D03*
X187000000Y-43300000D03*
X187000000Y-41100000D03*
D21*
X194100000Y-57510000D03*
D22*
X194100000Y-60050000D03*
X194100000Y-62590000D03*
X194100000Y-65130000D03*
X194100000Y-67670000D03*
X194100000Y-70210000D03*
D24*
X182800000Y-61050000D03*
X182800000Y-59550000D03*
X173450000Y-61050000D03*
X173450000Y-59550000D03*
D23*
X181450000Y-61000000D03*
X179950000Y-61000000D03*
X174950000Y-61000000D03*
X176450000Y-61000000D03*
X173005000Y-89295000D03*
X169550000Y-81400000D03*
D24*
X169100000Y-68660000D03*
X169100000Y-70160000D03*
D23*
X172050000Y-64950000D03*
X171050000Y-60650000D03*
X173700000Y-49600000D03*
X174900000Y-58250000D03*
X173400000Y-58250000D03*
X172050000Y-41000000D03*
X174920000Y-56750000D03*
X176420000Y-56750000D03*
X181350000Y-56780000D03*
X179850000Y-56780000D03*
X184100000Y-41000000D03*
X181340000Y-58270000D03*
X182840000Y-58270000D03*
X183960000Y-47910000D03*
D24*
X177500000Y-39400000D03*
X184700000Y-73400000D03*
X184700000Y-74900000D03*
D23*
X169850000Y-49500000D03*
X168350000Y-49500000D03*
X185600000Y-68900000D03*
X184100000Y-68900000D03*
X187850000Y-49550000D03*
X186350000Y-49550000D03*
X169850000Y-47900000D03*
X168350000Y-47900000D03*
X187850000Y-48000000D03*
X186350000Y-48000000D03*
D26*
X171600000Y-95250000D03*
X177400000Y-95250000D03*
D25*
X161180000Y-79600000D03*
X161180000Y-73800000D03*
X161190000Y-67650000D03*
X161190000Y-61850000D03*
D26*
X176550000Y-32500000D03*
X170750000Y-32500000D03*
X179650000Y-32550000D03*
X185450000Y-32550000D03*
D53*
X185900000Y-71400000D03*
X184630000Y-71400000D03*
D23*
X169700000Y-78250000D03*
D12*
X176760000Y-53370000D03*
X172760000Y-53370000D03*
X179540000Y-53390000D03*
X183540000Y-53390000D03*
M02*
