G04 #@! TF.GenerationSoftware,KiCad,Pcbnew,(5.1.5-0-10_14)*
G04 #@! TF.CreationDate,2021-03-04T08:39:19-05:00*
G04 #@! TF.ProjectId,FEA,4645412e-6b69-4636-9164-5f7063625858,rev?*
G04 #@! TF.SameCoordinates,Original*
G04 #@! TF.FileFunction,Profile,NP*
%FSLAX46Y46*%
G04 Gerber Fmt 4.6, Leading zero omitted, Abs format (unit mm)*
G04 Created by KiCad (PCBNEW (5.1.5-0-10_14)) date 2021-03-04 08:39:19*
%MOMM*%
%LPD*%
G04 APERTURE LIST*
%ADD10C,0.150000*%
G04 APERTURE END LIST*
D10*
X102770000Y-168750000D02*
X103845000Y-168750000D01*
X102270000Y-169250000D02*
X102270000Y-169775000D01*
X102270000Y-188150000D02*
X102270000Y-170775000D01*
X112920000Y-189150000D02*
X103270000Y-189150000D01*
X112920000Y-169775000D02*
X112920000Y-189150000D01*
X102270000Y-169775000D02*
X112920000Y-169775000D01*
X103270000Y-170775000D02*
X102270000Y-170775000D01*
X103270000Y-188150000D02*
X103270000Y-170775000D01*
X102270000Y-188150000D02*
X103270000Y-188150000D01*
X102270000Y-189150000D02*
X103270000Y-189150000D01*
X111527277Y-179800000D02*
G75*
G03X111527277Y-179800000I-3482277J0D01*
G01*
X102270000Y-169250000D02*
X102770000Y-168750000D01*
X119845000Y-168750000D02*
X119845000Y-165500000D01*
X116620000Y-168750000D02*
X119845000Y-168750000D01*
X103845000Y-168750000D02*
X116620000Y-168750000D01*
X119845000Y-165500000D02*
X119850000Y-148050000D01*
X102270000Y-189150000D02*
X20150000Y-189175000D01*
X20150000Y-90150000D02*
X109450000Y-90125000D01*
X118650000Y-90150000D02*
X116450000Y-90150000D01*
X116449911Y-90149999D02*
G75*
G02X109450000Y-90125000I-3499911J24999D01*
G01*
X116450000Y-164025000D02*
G75*
G03X116450000Y-164025000I-3500000J0D01*
G01*
X20150000Y-189175000D02*
X20150000Y-149200000D01*
X119850000Y-90150000D02*
X119850000Y-91400000D01*
X118650000Y-90150000D02*
X119850000Y-90150000D01*
X119850000Y-148050000D02*
X119850000Y-91400000D01*
X20150000Y-90150000D02*
X20150000Y-149200000D01*
M02*
