M48
; DRILL file {KiCad (5.1.5-0-10_14)} date Thursday, March 04, 2021 at 08:39:20 AM
; FORMAT={-:-/ absolute / metric / decimal}
; #@! TF.CreationDate,2021-03-04T08:39:20-05:00
; #@! TF.GenerationSoftware,Kicad,Pcbnew,(5.1.5-0-10_14)
; #@! TF.FileFunction,Plated,1,4,PTH
FMAT,2
METRIC
T1C0.300
T2C0.400
T3C1.000
T4C1.300
T5C1.480
%
G90
G05
T1
X84.9Y-117.2
X26.425Y-161.9
X26.425Y-165.9
X89.2Y-143.0
X90.7Y-143.0
X42.75Y-109.55
X61.7Y-162.6
X48.65Y-114.45
X50.15Y-114.45
X36.6Y-119.9
X90.65Y-139.0
X90.65Y-140.5
X61.7Y-119.4
X70.65Y-140.8
X62.15Y-137.4
X83.3Y-137.25
X67.1Y-161.5
X31.35Y-165.9
X30.95Y-140.8
X89.1Y-130.0
X42.75Y-110.7
X64.25Y-142.7
X37.0Y-118.25
X38.5Y-118.25
X52.0Y-101.05
X77.0Y-110.6
X77.0Y-112.1
X84.75Y-160.35
X86.25Y-160.35
X33.125Y-97.575
X33.125Y-103.775
X33.125Y-115.375
X33.125Y-122.575
X34.625Y-124.075
X34.725Y-96.075
X39.825Y-124.045
X39.925Y-96.075
X45.87Y-124.045
X51.915Y-124.045
X57.96Y-124.045
X64.005Y-124.045
X70.05Y-124.045
X76.095Y-124.045
X76.195Y-96.075
X82.14Y-124.045
X82.24Y-96.075
X87.725Y-124.075
X88.025Y-96.075
X89.325Y-122.475
X89.475Y-110.075
X89.525Y-97.575
X61.55Y-98.65
X74.2Y-134.7
X55.0Y-141.0
X74.5Y-140.8
X68.5Y-133.0
X68.5Y-134.5
X54.175Y-147.37
X59.925Y-148.64
X84.85Y-170.9
X59.75Y-110.15
X45.9Y-104.4
X48.1Y-106.3
X64.05Y-144.45
X47.5Y-182.15
X61.85Y-160.9
X78.95Y-162.2
X42.8Y-104.8
X44.3Y-104.8
X81.9Y-108.55
X46.1Y-129.0
X46.1Y-135.2
X46.1Y-146.8
X46.1Y-154.0
X47.6Y-155.5
X47.7Y-127.5
X52.8Y-155.47
X52.9Y-127.5
X58.845Y-155.47
X64.89Y-155.47
X70.935Y-155.47
X76.98Y-155.47
X77.08Y-127.5
X83.025Y-155.47
X89.07Y-155.47
X89.17Y-127.5
X95.115Y-155.47
X95.215Y-127.5
X100.7Y-155.5
X101.0Y-127.5
X102.3Y-153.9
X102.45Y-141.5
X102.5Y-129.0
X72.9Y-165.15
X98.6Y-135.2
X25.17Y-120.8
X27.55Y-157.75
X104.1Y-130.75
X85.1Y-173.6
X86.6Y-173.6
X69.6Y-105.95
X71.45Y-148.85
X30.9Y-149.7
X90.6Y-130.0
X66.8Y-181.65
X66.8Y-183.15
X50.65Y-112.85
X62.05Y-146.1
X63.55Y-146.1
X64.4Y-132.1
X85.05Y-184.1
X36.4Y-121.6
X55.9Y-120.35
X75.5Y-98.65
X77.0Y-98.65
X77.15Y-148.3
X77.15Y-149.8
X54.75Y-134.25
X73.0Y-160.95
X73.0Y-162.45
X47.3Y-183.85
X48.65Y-114.45
X50.15Y-114.45
X81.95Y-97.8
X50.5Y-150.1
X55.7Y-99.25
X59.3Y-176.65
X60.8Y-176.65
X105.6Y-130.75
X38.4Y-111.85
X108.625Y-126.425
X108.625Y-144.205
X108.625Y-145.475
X108.625Y-146.745
X109.895Y-128.965
X109.895Y-132.775
X109.895Y-134.045
X109.895Y-142.935
X111.165Y-126.425
X111.165Y-128.965
X111.165Y-130.235
X111.165Y-132.775
X111.165Y-134.045
X112.435Y-128.965
X113.705Y-126.425
X114.975Y-126.425
X114.975Y-130.235
X114.975Y-131.505
X114.975Y-134.045
X114.975Y-137.855
X114.975Y-141.665
X116.245Y-126.425
X116.245Y-130.235
X116.245Y-131.505
X116.245Y-134.045
X116.245Y-135.315
X116.245Y-137.855
X116.245Y-139.125
X116.245Y-141.665
X117.515Y-126.425
X117.515Y-134.045
X117.515Y-135.315
X117.515Y-137.855
X117.515Y-139.125
X117.515Y-141.665
X117.515Y-142.935
X57.5Y-116.95
X60.1Y-116.95
X60.1Y-118.85
X71.1Y-107.45
X30.47Y-115.05
X26.72Y-115.0
X56.3Y-144.5
X91.1Y-159.65
X68.35Y-179.75
X70.95Y-179.75
X70.95Y-181.65
X24.515Y-123.25
X24.515Y-124.2
X24.515Y-125.15
X55.0Y-142.2
X49.8Y-153.5
X84.75Y-138.7
X86.55Y-182.6
X86.55Y-184.1
X75.715Y-105.95
X82.0Y-111.05
X63.7Y-110.15
X47.85Y-180.5
X49.35Y-180.5
X79.3Y-172.45
X77.0Y-110.6
X64.2Y-133.8
X68.55Y-172.85
X68.8Y-161.5
X71.4Y-161.5
X71.4Y-163.4
X58.45Y-103.15
X59.7Y-108.95
X52.8Y-164.7
X54.3Y-164.7
X95.65Y-122.5
X84.85Y-151.65
X77.45Y-162.2
X95.75Y-152.7
X55.85Y-101.1
X55.85Y-102.6
X98.65Y-146.75
X43.9Y-159.5
X43.9Y-165.7
X43.9Y-177.3
X43.9Y-184.5
X45.4Y-186.0
X45.5Y-158.0
X50.6Y-185.97
X50.7Y-158.0
X56.645Y-185.97
X62.69Y-185.97
X68.735Y-185.97
X74.78Y-185.97
X74.88Y-158.0
X80.825Y-185.97
X86.87Y-185.97
X86.97Y-158.0
X92.915Y-185.97
X93.015Y-158.0
X98.5Y-186.0
X98.8Y-158.0
X100.1Y-184.4
X100.25Y-172.0
X100.3Y-159.5
X75.1Y-109.35
X67.25Y-163.4
X67.25Y-164.9
X38.05Y-103.38
X75.5Y-122.55
X95.55Y-142.3
X94.55Y-178.7
X68.35Y-131.1
X61.3Y-174.95
X103.6Y-159.9
X59.7Y-164.25
X61.2Y-164.25
X42.1Y-103.1
X59.65Y-166.15
X55.9Y-118.85
X55.9Y-120.35
X72.95Y-148.85
X75.55Y-150.75
X49.8Y-106.3
X86.3Y-170.85
X51.25Y-104.45
X84.965Y-167.6
X54.84Y-92.98
X60.64Y-92.98
X30.9Y-135.8
X95.65Y-121.0
X85.315Y-180.8
X42.0Y-101.3
X81.9Y-121.7
X89.365Y-137.25
X55.85Y-102.6
X83.2Y-129.55
X91.55Y-183.2
X89.415Y-150.2
X77.0Y-121.05
X77.0Y-122.55
X89.2Y-153.45
X70.1Y-131.1
X72.7Y-131.1
X72.7Y-133.0
X52.3Y-163.05
X29.12Y-121.25
X52.1Y-161.3
X22.525Y-123.245
X22.525Y-124.745
X42.8Y-104.8
X62.15Y-135.5
X63.65Y-135.5
X53.65Y-175.3
X23.0Y-161.9
X70.65Y-142.1
X72.45Y-172.85
X61.7Y-117.9
X61.7Y-119.4
X57.35Y-99.2
X59.95Y-99.2
X59.95Y-101.1
X63.7Y-108.95
X42.85Y-113.4
X94.15Y-165.5
X55.9Y-164.25
X58.1Y-166.15
X89.15Y-140.5
X78.9Y-167.6
X44.225Y-92.95
X50.025Y-92.95
X30.95Y-147.2
X40.725Y-114.45
X40.725Y-115.72
X46.475Y-116.99
X98.6Y-133.75
X58.4Y-135.5
X60.6Y-137.4
X49.75Y-104.45
X51.25Y-104.45
X50.0Y-151.75
X20.995Y-186.675
X25.195Y-174.525
X26.465Y-174.525
X27.735Y-174.525
X30.275Y-174.525
X31.545Y-174.525
X32.815Y-174.525
X38.245Y-186.625
X74.5Y-142.1
X72.4Y-171.7
X55.75Y-116.95
X77.0Y-107.7
X77.0Y-109.2
X50.65Y-143.35
X95.6Y-129.2
X86.3Y-169.35
X84.95Y-103.95
X90.7Y-151.95
X90.7Y-153.45
X80.75Y-182.25
X51.475Y-177.97
X57.225Y-179.24
X72.55Y-179.2
X72.55Y-180.7
X61.5Y-173.2
X50.5Y-150.1
X52.0Y-150.1
X71.4Y-150.75
X71.4Y-152.25
X25.57Y-117.9
X53.55Y-169.7
X68.55Y-171.7
X101.95Y-160.6
X94.55Y-177.2
X51.75Y-102.8
X84.95Y-102.5
X75.715Y-119.25
X83.25Y-141.85
X51.05Y-134.96
X80.4Y-169.05
X91.6Y-172.75
X71.15Y-120.7
X55.25Y-135.9
X56.75Y-135.9
X66.55Y-179.75
X74.25Y-130.55
X74.25Y-132.05
X23.9Y-126.85
X91.15Y-170.0
X65.4Y-92.95
X71.2Y-92.95
X66.15Y-98.05
X53.55Y-170.9
X54.55Y-132.5
X50.85Y-111.1
X84.9Y-115.75
X98.65Y-148.15
X96.0Y-139.85
X94.15Y-164.1
X61.55Y-98.65
X61.55Y-100.15
X81.7Y-129.55
X23.37Y-116.95
X23.37Y-118.45
T2
X21.9Y-161.35
X21.9Y-162.35
X24.1Y-161.9
X26.3Y-158.2
X26.35Y-157.25
X28.65Y-158.2
X28.7Y-157.25
X42.85Y-117.4
X42.85Y-118.7
X43.6Y-117.4
X43.6Y-118.7
X44.25Y-113.4
X44.25Y-115.15
X44.3Y-117.4
X44.3Y-118.7
X48.65Y-114.45
X53.5Y-181.3
X53.55Y-179.75
X53.75Y-158.35
X54.4Y-179.7
X54.4Y-181.3
X54.7Y-157.44
X54.75Y-158.35
X55.1Y-177.35
X55.15Y-175.8
X55.3Y-179.7
X55.3Y-181.3
X56.3Y-150.4
X56.4Y-148.5
X56.55Y-149.35
X57.05Y-150.4
X57.7Y-149.1
X57.75Y-145.45
X57.9Y-150.4
X64.3Y-99.15
X65.45Y-100.95
X66.43Y-126.09
X67.55Y-128.65
X67.7Y-156.75
X67.7Y-159.55
X68.75Y-126.09
X70.35Y-100.65
X70.4Y-97.55
X74.85Y-160.05
X75.7Y-103.25
X75.7Y-116.4
X81.65Y-132.45
X81.8Y-116.4
X82.25Y-103.25
X84.95Y-164.75
X85.3Y-177.95
X89.3Y-134.45
X89.4Y-147.4
X91.05Y-164.8
X91.25Y-177.9
X94.1Y-124.65
X94.1Y-126.09
X94.45Y-134.45
X94.5Y-147.4
X98.0Y-125.4
X102.25Y-132.35
X103.3Y-138.85
X105.0Y-132.35
X105.0Y-133.3
X106.124Y-133.224
X106.5Y-138.85
X118.75Y-131.55
T3
X31.68Y-127.0
X34.22Y-127.0
X35.0Y-147.17
X35.0Y-149.71
X35.0Y-152.25
X35.0Y-135.77
X35.0Y-138.31
X35.0Y-140.85
X31.68Y-130.7
X34.22Y-130.7
T4
X38.59Y-129.84
X38.59Y-134.92
X41.13Y-132.38
X43.67Y-129.84
X43.67Y-134.92
X24.91Y-98.16
X24.91Y-103.24
X27.45Y-100.7
X29.99Y-98.16
X29.99Y-103.24
X99.78Y-119.51
X99.78Y-124.59
X102.32Y-122.05
X104.86Y-119.51
X104.86Y-124.59
X91.87Y-95.69
X91.87Y-100.77
X94.41Y-98.23
X96.95Y-95.69
X96.95Y-100.77
X91.85Y-105.43
X91.85Y-110.51
X94.39Y-107.97
X96.93Y-105.43
X96.93Y-110.51
X36.855Y-165.585
X36.855Y-170.665
X39.395Y-168.125
X41.935Y-165.585
X41.935Y-170.665
X38.59Y-139.04
X38.59Y-144.12
X41.13Y-141.58
X43.67Y-139.04
X43.67Y-144.12
X24.91Y-107.56
X24.91Y-112.64
X27.45Y-110.1
X29.99Y-107.56
X29.99Y-112.64
X99.83Y-110.46
X99.83Y-115.54
X102.37Y-113.0
X104.91Y-110.46
X104.91Y-115.54
X36.855Y-156.635
X36.855Y-161.715
X39.395Y-159.175
X41.935Y-156.635
X41.935Y-161.715
T5
X110.925Y-154.025
X112.925Y-100.125
T3
G00X88.92Y-92.4
M15
G01X88.92Y-89.4
M16
G05
G00X91.46Y-92.4
M15
G01X91.46Y-89.4
M16
G05
G00X94.0Y-92.4
M15
G01X94.0Y-89.4
M16
G05
G00X96.54Y-92.4
M15
G01X96.54Y-89.4
M16
G05
T0
M30
