G04 #@! TF.GenerationSoftware,KiCad,Pcbnew,(5.1.5-0-10_14)*
G04 #@! TF.CreationDate,2021-03-04T08:39:19-05:00*
G04 #@! TF.ProjectId,FEA,4645412e-6b69-4636-9164-5f7063625858,rev?*
G04 #@! TF.SameCoordinates,Original*
G04 #@! TF.FileFunction,Soldermask,Bot*
G04 #@! TF.FilePolarity,Negative*
%FSLAX46Y46*%
G04 Gerber Fmt 4.6, Leading zero omitted, Abs format (unit mm)*
G04 Created by KiCad (PCBNEW (5.1.5-0-10_14)) date 2021-03-04 08:39:19*
%MOMM*%
%LPD*%
G04 APERTURE LIST*
%ADD10R,1.000000X1.950000*%
%ADD11R,1.400000X1.650000*%
%ADD12R,1.460000X1.050000*%
%ADD13R,2.200000X2.200000*%
%ADD14O,2.200000X2.200000*%
%ADD15R,4.440000X1.400000*%
%ADD16R,1.400000X4.440000*%
%ADD17C,1.880000*%
%ADD18C,1.000000*%
%ADD19O,2.100000X2.100000*%
%ADD20R,2.100000X2.100000*%
%ADD21R,2.000000X2.400000*%
%ADD22C,2.400000*%
%ADD23R,2.400000X4.400000*%
%ADD24R,1.200000X1.200000*%
%ADD25R,1.150000X1.200000*%
%ADD26R,1.620000X1.050000*%
%ADD27R,2.100000X5.400000*%
%ADD28O,2.100000X5.400000*%
%ADD29R,1.200000X1.150000*%
%ADD30R,1.160000X5.150000*%
%ADD31R,3.400000X3.900000*%
%ADD32R,5.400000X3.900000*%
%ADD33R,1.650000X1.400000*%
%ADD34R,1.960000X1.050000*%
%ADD35R,1.500000X1.000000*%
%ADD36R,3.790000X2.360000*%
%ADD37R,1.060000X0.800000*%
%ADD38R,1.600000X1.300000*%
%ADD39R,1.600000X1.600000*%
%ADD40R,2.600000X0.900000*%
G04 APERTURE END LIST*
D10*
X75715000Y-105950000D03*
D11*
X81400000Y-118450000D03*
X83400000Y-118450000D03*
D12*
X48100000Y-106300000D03*
X45900000Y-104400000D03*
D13*
X35000000Y-152250000D03*
D14*
X35000000Y-149710000D03*
X35000000Y-147170000D03*
X35000000Y-135770000D03*
X35000000Y-138310000D03*
D13*
X35000000Y-140850000D03*
D15*
X82140000Y-124045000D03*
X76095000Y-124045000D03*
X70050000Y-124045000D03*
X64005000Y-124045000D03*
X57960000Y-124045000D03*
X51915000Y-124045000D03*
X45870000Y-124045000D03*
X39825000Y-124045000D03*
X82240000Y-96075000D03*
X76195000Y-96075000D03*
D16*
X33125000Y-115375000D03*
X89475000Y-110075000D03*
D15*
X88025000Y-96075000D03*
D16*
X89525000Y-97575000D03*
D15*
X87725000Y-124075000D03*
D16*
X89325000Y-122475000D03*
X33125000Y-122575000D03*
D15*
X34625000Y-124075000D03*
X34725000Y-96075000D03*
D16*
X33125000Y-97575000D03*
X33125000Y-103775000D03*
D15*
X39925000Y-96075000D03*
D17*
X110925000Y-154025000D03*
X112925000Y-100125000D03*
D18*
X117515000Y-102295000D03*
X116245000Y-102295000D03*
X114975000Y-102295000D03*
X113705000Y-102295000D03*
X112435000Y-102295000D03*
X111165000Y-102295000D03*
X109895000Y-102295000D03*
X108625000Y-102295000D03*
X117515000Y-103565000D03*
X116245000Y-103565000D03*
X114975000Y-103565000D03*
X113705000Y-103565000D03*
X112435000Y-103565000D03*
X111165000Y-103565000D03*
X109895000Y-103565000D03*
X108625000Y-103565000D03*
X117515000Y-104835000D03*
X116245000Y-104835000D03*
X114975000Y-104835000D03*
X113705000Y-104835000D03*
X112435000Y-104835000D03*
X111165000Y-104835000D03*
X109895000Y-104835000D03*
X108625000Y-104835000D03*
X117515000Y-106105000D03*
X116245000Y-106105000D03*
X114975000Y-106105000D03*
X113705000Y-106105000D03*
X112435000Y-106105000D03*
X111165000Y-106105000D03*
X109895000Y-106105000D03*
X108625000Y-106105000D03*
X117515000Y-107375000D03*
X116245000Y-107375000D03*
X114975000Y-107375000D03*
X113705000Y-107375000D03*
X112435000Y-107375000D03*
X111165000Y-107375000D03*
X109895000Y-107375000D03*
X108625000Y-107375000D03*
X117515000Y-108645000D03*
X116245000Y-108645000D03*
X114975000Y-108645000D03*
X113705000Y-108645000D03*
X112435000Y-108645000D03*
X111165000Y-108645000D03*
X109895000Y-108645000D03*
X108625000Y-108645000D03*
X117515000Y-109915000D03*
X116245000Y-109915000D03*
X114975000Y-109915000D03*
X113705000Y-109915000D03*
X112435000Y-109915000D03*
X111165000Y-109915000D03*
X109895000Y-109915000D03*
X108625000Y-109915000D03*
X117515000Y-111185000D03*
X116245000Y-111185000D03*
X114975000Y-111185000D03*
X113705000Y-111185000D03*
X112435000Y-111185000D03*
X111165000Y-111185000D03*
X109895000Y-111185000D03*
X108625000Y-111185000D03*
X117515000Y-112455000D03*
X116245000Y-112455000D03*
X114975000Y-112455000D03*
X113705000Y-112455000D03*
X112435000Y-112455000D03*
X111165000Y-112455000D03*
X109895000Y-112455000D03*
X108625000Y-112455000D03*
X117515000Y-113725000D03*
X116245000Y-113725000D03*
X114975000Y-113725000D03*
X113705000Y-113725000D03*
X112435000Y-113725000D03*
X111165000Y-113725000D03*
X109895000Y-113725000D03*
X108625000Y-113725000D03*
X117515000Y-114995000D03*
X116245000Y-114995000D03*
X114975000Y-114995000D03*
X113705000Y-114995000D03*
X112435000Y-114995000D03*
X111165000Y-114995000D03*
X109895000Y-114995000D03*
X108625000Y-114995000D03*
X117515000Y-116265000D03*
X116245000Y-116265000D03*
X114975000Y-116265000D03*
X113705000Y-116265000D03*
X112435000Y-116265000D03*
X111165000Y-116265000D03*
X109895000Y-116265000D03*
X108625000Y-116265000D03*
X117515000Y-117535000D03*
X116245000Y-117535000D03*
X114975000Y-117535000D03*
X113705000Y-117535000D03*
X112435000Y-117535000D03*
X111165000Y-117535000D03*
X109895000Y-117535000D03*
X108625000Y-117535000D03*
X117515000Y-118805000D03*
X116245000Y-118805000D03*
X114975000Y-118805000D03*
X113705000Y-118805000D03*
X112435000Y-118805000D03*
X111165000Y-118805000D03*
X109895000Y-118805000D03*
X108625000Y-118805000D03*
X117515000Y-120075000D03*
X116245000Y-120075000D03*
X114975000Y-120075000D03*
X113705000Y-120075000D03*
X112435000Y-120075000D03*
X111165000Y-120075000D03*
X109895000Y-120075000D03*
X108625000Y-120075000D03*
X117515000Y-121345000D03*
X116245000Y-121345000D03*
X114975000Y-121345000D03*
X113705000Y-121345000D03*
X112435000Y-121345000D03*
X111165000Y-121345000D03*
X109895000Y-121345000D03*
X108625000Y-121345000D03*
X117515000Y-122615000D03*
X116245000Y-122615000D03*
X114975000Y-122615000D03*
X113705000Y-122615000D03*
X112435000Y-122615000D03*
X111165000Y-122615000D03*
X109895000Y-122615000D03*
X108625000Y-122615000D03*
X117515000Y-123885000D03*
X116245000Y-123885000D03*
X114975000Y-123885000D03*
X113705000Y-123885000D03*
X112435000Y-123885000D03*
X111165000Y-123885000D03*
X109895000Y-123885000D03*
X108625000Y-123885000D03*
X117515000Y-125155000D03*
X116245000Y-125155000D03*
X114975000Y-125155000D03*
X113705000Y-125155000D03*
X112435000Y-125155000D03*
X111165000Y-125155000D03*
X109895000Y-125155000D03*
X108625000Y-125155000D03*
X117515000Y-126425000D03*
X116245000Y-126425000D03*
X114975000Y-126425000D03*
X113705000Y-126425000D03*
X112435000Y-126425000D03*
X111165000Y-126425000D03*
X109895000Y-126425000D03*
X108625000Y-126425000D03*
X117515000Y-127695000D03*
X116245000Y-127695000D03*
X114975000Y-127695000D03*
X113705000Y-127695000D03*
X112435000Y-127695000D03*
X111165000Y-127695000D03*
X109895000Y-127695000D03*
X108625000Y-127695000D03*
X117515000Y-128965000D03*
X116245000Y-128965000D03*
X114975000Y-128965000D03*
X113705000Y-128965000D03*
X112435000Y-128965000D03*
X111165000Y-128965000D03*
X109895000Y-128965000D03*
X108625000Y-128965000D03*
X117515000Y-130235000D03*
X116245000Y-130235000D03*
X114975000Y-130235000D03*
X113705000Y-130235000D03*
X112435000Y-130235000D03*
X111165000Y-130235000D03*
X109895000Y-130235000D03*
X108625000Y-130235000D03*
X117515000Y-131505000D03*
X116245000Y-131505000D03*
X114975000Y-131505000D03*
X113705000Y-131505000D03*
X112435000Y-131505000D03*
X111165000Y-131505000D03*
X109895000Y-131505000D03*
X108625000Y-131505000D03*
X117515000Y-132775000D03*
X116245000Y-132775000D03*
X114975000Y-132775000D03*
X113705000Y-132775000D03*
X112435000Y-132775000D03*
X111165000Y-132775000D03*
X109895000Y-132775000D03*
X108625000Y-132775000D03*
X117515000Y-134045000D03*
X116245000Y-134045000D03*
X114975000Y-134045000D03*
X113705000Y-134045000D03*
X112435000Y-134045000D03*
X111165000Y-134045000D03*
X109895000Y-134045000D03*
X108625000Y-134045000D03*
X117515000Y-135315000D03*
X116245000Y-135315000D03*
X114975000Y-135315000D03*
X113705000Y-135315000D03*
X112435000Y-135315000D03*
X111165000Y-135315000D03*
X109895000Y-135315000D03*
X108625000Y-135315000D03*
X117515000Y-136585000D03*
X116245000Y-136585000D03*
X114975000Y-136585000D03*
X113705000Y-136585000D03*
X112435000Y-136585000D03*
X111165000Y-136585000D03*
X109895000Y-136585000D03*
X108625000Y-136585000D03*
X117515000Y-137855000D03*
X116245000Y-137855000D03*
X114975000Y-137855000D03*
X113705000Y-137855000D03*
X112435000Y-137855000D03*
X111165000Y-137855000D03*
X109895000Y-137855000D03*
X108625000Y-137855000D03*
X117515000Y-139125000D03*
X116245000Y-139125000D03*
X114975000Y-139125000D03*
X113705000Y-139125000D03*
X112435000Y-139125000D03*
X111165000Y-139125000D03*
X109895000Y-139125000D03*
X108625000Y-139125000D03*
X117515000Y-140395000D03*
X116245000Y-140395000D03*
X114975000Y-140395000D03*
X113705000Y-140395000D03*
X112435000Y-140395000D03*
X111165000Y-140395000D03*
X109895000Y-140395000D03*
X108625000Y-140395000D03*
X117515000Y-141665000D03*
X116245000Y-141665000D03*
X114975000Y-141665000D03*
X113705000Y-141665000D03*
X112435000Y-141665000D03*
X111165000Y-141665000D03*
X109895000Y-141665000D03*
X108625000Y-141665000D03*
X117515000Y-142935000D03*
X116245000Y-142935000D03*
X114975000Y-142935000D03*
X113705000Y-142935000D03*
X112435000Y-142935000D03*
X111165000Y-142935000D03*
X109895000Y-142935000D03*
X108625000Y-142935000D03*
X117515000Y-144205000D03*
X116245000Y-144205000D03*
X114975000Y-144205000D03*
X113705000Y-144205000D03*
X112435000Y-144205000D03*
X111165000Y-144205000D03*
X109895000Y-144205000D03*
X108625000Y-144205000D03*
X117515000Y-145475000D03*
X116245000Y-145475000D03*
X114975000Y-145475000D03*
X113705000Y-145475000D03*
X112435000Y-145475000D03*
X111165000Y-145475000D03*
X109895000Y-145475000D03*
X108625000Y-145475000D03*
X117515000Y-146745000D03*
X116245000Y-146745000D03*
X114975000Y-146745000D03*
X113705000Y-146745000D03*
X112435000Y-146745000D03*
X111165000Y-146745000D03*
X109895000Y-146745000D03*
X108625000Y-146745000D03*
X117515000Y-148015000D03*
X116245000Y-148015000D03*
X114975000Y-148015000D03*
X113705000Y-148015000D03*
X112435000Y-148015000D03*
X111165000Y-148015000D03*
X109895000Y-148015000D03*
X108625000Y-148015000D03*
X117515000Y-149285000D03*
X116245000Y-149285000D03*
X114975000Y-149285000D03*
X113705000Y-149285000D03*
X112435000Y-149285000D03*
X111165000Y-149285000D03*
X109895000Y-149285000D03*
X108625000Y-149285000D03*
X117515000Y-150555000D03*
X116245000Y-150555000D03*
X114975000Y-150555000D03*
X113705000Y-150555000D03*
X112435000Y-150555000D03*
X111165000Y-150555000D03*
X109895000Y-150555000D03*
X108625000Y-150555000D03*
X117515000Y-151825000D03*
X116245000Y-151825000D03*
X114975000Y-151825000D03*
X113705000Y-151825000D03*
X112435000Y-151825000D03*
X111165000Y-151825000D03*
X109895000Y-151825000D03*
X108625000Y-151825000D03*
D19*
X31680000Y-127000000D03*
D20*
X34220000Y-127000000D03*
X34220000Y-130700000D03*
D19*
X31680000Y-130700000D03*
D21*
X26425000Y-161900000D03*
X26425000Y-165900000D03*
D22*
X27450000Y-110100000D03*
X29990000Y-107560000D03*
X24910000Y-107560000D03*
X24910000Y-112640000D03*
X29990000Y-112640000D03*
X27450000Y-100700000D03*
X29990000Y-98160000D03*
X24910000Y-98160000D03*
X24910000Y-103240000D03*
X29990000Y-103240000D03*
D23*
X60640000Y-92980000D03*
X54840000Y-92980000D03*
X44225000Y-92950000D03*
X50025000Y-92950000D03*
D24*
X23370000Y-118450000D03*
D25*
X23370000Y-116950000D03*
D22*
X43670000Y-144120000D03*
X38590000Y-144120000D03*
X38590000Y-139040000D03*
X43670000Y-139040000D03*
X41130000Y-141580000D03*
X41130000Y-132380000D03*
X43670000Y-129840000D03*
X38590000Y-129840000D03*
X38590000Y-134920000D03*
X43670000Y-134920000D03*
X39395000Y-168125000D03*
X41935000Y-165585000D03*
X36855000Y-165585000D03*
X36855000Y-170665000D03*
X41935000Y-170665000D03*
X41935000Y-161715000D03*
X36855000Y-161715000D03*
X36855000Y-156635000D03*
X41935000Y-156635000D03*
X39395000Y-159175000D03*
X94410000Y-98230000D03*
X96950000Y-95690000D03*
X91870000Y-95690000D03*
X91870000Y-100770000D03*
X96950000Y-100770000D03*
X96930000Y-110510000D03*
X91850000Y-110510000D03*
X91850000Y-105430000D03*
X96930000Y-105430000D03*
X94390000Y-107970000D03*
X104910000Y-115540000D03*
X99830000Y-115540000D03*
X99830000Y-110460000D03*
X104910000Y-110460000D03*
X102370000Y-113000000D03*
X102320000Y-122050000D03*
X104860000Y-119510000D03*
X99780000Y-119510000D03*
X99780000Y-124590000D03*
X104860000Y-124590000D03*
D25*
X22525000Y-124745000D03*
X22525000Y-123245000D03*
D26*
X24515000Y-123250000D03*
X24515000Y-124200000D03*
X24515000Y-125150000D03*
D23*
X65400000Y-92950000D03*
X71200000Y-92950000D03*
D27*
X88920000Y-90900000D03*
D28*
X91460000Y-90900000D03*
X94000000Y-90900000D03*
X96540000Y-90900000D03*
D29*
X23900000Y-126850000D03*
D30*
X25195000Y-174525000D03*
X26465000Y-174525000D03*
X27735000Y-174525000D03*
X30275000Y-174525000D03*
X31545000Y-174525000D03*
X32815000Y-174525000D03*
D31*
X38245000Y-186625000D03*
D32*
X20995000Y-186675000D03*
D33*
X29120000Y-121250000D03*
X30470000Y-115050000D03*
D11*
X32900000Y-149700000D03*
X30900000Y-149700000D03*
X32950000Y-140800000D03*
X30950000Y-140800000D03*
X30950000Y-147200000D03*
X32950000Y-147200000D03*
X30900000Y-135800000D03*
X32900000Y-135800000D03*
D29*
X26720000Y-115000000D03*
D34*
X25570000Y-117900000D03*
D11*
X25170000Y-120800000D03*
D25*
X61700000Y-117900000D03*
X61700000Y-119400000D03*
X61700000Y-119400000D03*
X61700000Y-117900000D03*
X55900000Y-118850000D03*
X55900000Y-120350000D03*
X55900000Y-120350000D03*
X55900000Y-118850000D03*
X61550000Y-100150000D03*
X61550000Y-98650000D03*
X61550000Y-100150000D03*
X61550000Y-98650000D03*
X55850000Y-102600000D03*
X55850000Y-101100000D03*
X55850000Y-102600000D03*
X55850000Y-101100000D03*
D35*
X60100000Y-118850000D03*
X57500000Y-116950000D03*
X60100000Y-116950000D03*
X59950000Y-99200000D03*
X57350000Y-99200000D03*
X59950000Y-101100000D03*
D29*
X95650000Y-121000000D03*
X95650000Y-122500000D03*
D25*
X105600000Y-130750000D03*
X104100000Y-130750000D03*
X101950000Y-160600000D03*
X103600000Y-159900000D03*
X58600000Y-117250000D03*
X58600000Y-118750000D03*
X58500000Y-99400000D03*
X58500000Y-100900000D03*
D29*
X55750000Y-116950000D03*
X57250000Y-116950000D03*
X58450000Y-103150000D03*
X55700000Y-99250000D03*
X57200000Y-99250000D03*
D36*
X27550000Y-157750000D03*
X23000000Y-161900000D03*
D11*
X38600000Y-119900000D03*
X36600000Y-119900000D03*
X51750000Y-102800000D03*
X49750000Y-102800000D03*
D29*
X38550000Y-118200000D03*
X37050000Y-118200000D03*
X49750000Y-104450000D03*
X51250000Y-104450000D03*
X37000000Y-118250000D03*
X38500000Y-118250000D03*
X51250000Y-104450000D03*
X49750000Y-104450000D03*
X47850000Y-101300000D03*
X46350000Y-101300000D03*
X48650000Y-114450000D03*
X50150000Y-114450000D03*
X44300000Y-104800000D03*
X42800000Y-104800000D03*
X50150000Y-114450000D03*
X48650000Y-114450000D03*
X42800000Y-104800000D03*
X44300000Y-104800000D03*
D11*
X44100000Y-103100000D03*
X42100000Y-103100000D03*
X50650000Y-112850000D03*
X48650000Y-112850000D03*
D37*
X42750000Y-110700000D03*
X42750000Y-109550000D03*
D38*
X38600000Y-121600000D03*
X36400000Y-121600000D03*
X52000000Y-101050000D03*
X49800000Y-101050000D03*
X50850000Y-111100000D03*
X48650000Y-111100000D03*
X42000000Y-101300000D03*
X44200000Y-101300000D03*
D29*
X38400000Y-111850000D03*
D25*
X42850000Y-113400000D03*
X42850000Y-114900000D03*
D29*
X48300000Y-106300000D03*
X49800000Y-106300000D03*
X44350000Y-116250000D03*
X42850000Y-116250000D03*
D25*
X47000000Y-104600000D03*
X47000000Y-106100000D03*
D39*
X38050000Y-103380000D03*
D40*
X40725000Y-114450000D03*
X40725000Y-115720000D03*
X46475000Y-116990000D03*
D25*
X84950000Y-102500000D03*
D11*
X83400000Y-114450000D03*
X81400000Y-114450000D03*
D25*
X77000000Y-112100000D03*
X77000000Y-110600000D03*
X77000000Y-110600000D03*
X77000000Y-112100000D03*
X84900000Y-115750000D03*
X84950000Y-103950000D03*
X77000000Y-117300000D03*
X77000000Y-115800000D03*
X84900000Y-117200000D03*
X77000000Y-121050000D03*
X77000000Y-122550000D03*
X75500000Y-122550000D03*
X77000000Y-122550000D03*
X77000000Y-121050000D03*
D11*
X83400000Y-101350000D03*
X81400000Y-101350000D03*
D29*
X75500000Y-98650000D03*
X77000000Y-98650000D03*
X77000000Y-98650000D03*
X75500000Y-98650000D03*
D25*
X77000000Y-102500000D03*
X77000000Y-104000000D03*
X77000000Y-109200000D03*
X77000000Y-107700000D03*
X77000000Y-107700000D03*
X77000000Y-109200000D03*
X75100000Y-109350000D03*
D11*
X81400000Y-105150000D03*
X83400000Y-105150000D03*
D38*
X82000000Y-111050000D03*
X79800000Y-111050000D03*
X79700000Y-121700000D03*
X81900000Y-121700000D03*
X79750000Y-97800000D03*
X81950000Y-97800000D03*
X81900000Y-108550000D03*
X79700000Y-108550000D03*
D29*
X71150000Y-120700000D03*
D25*
X66150000Y-98050000D03*
D29*
X71100000Y-107450000D03*
X69600000Y-105950000D03*
D10*
X75715000Y-119250000D03*
D37*
X63700000Y-108950000D03*
X59700000Y-108950000D03*
X63700000Y-110150000D03*
X59750000Y-110150000D03*
D21*
X31350000Y-165900000D03*
D11*
X52000000Y-151750000D03*
X50000000Y-151750000D03*
X62200000Y-133800000D03*
X64200000Y-133800000D03*
D29*
X52000000Y-150100000D03*
X50500000Y-150100000D03*
X62150000Y-135500000D03*
X63650000Y-135500000D03*
X50500000Y-150100000D03*
X52000000Y-150100000D03*
X62150000Y-135500000D03*
X63650000Y-135500000D03*
X58700000Y-132250000D03*
X60200000Y-132250000D03*
X62050000Y-146100000D03*
X63550000Y-146100000D03*
X55250000Y-135900000D03*
X56750000Y-135900000D03*
X63550000Y-146100000D03*
X62050000Y-146100000D03*
X55250000Y-135900000D03*
X56750000Y-135900000D03*
D11*
X54750000Y-134250000D03*
X56750000Y-134250000D03*
X64050000Y-144450000D03*
X62050000Y-144450000D03*
X97000000Y-132700000D03*
X95000000Y-132700000D03*
D29*
X90600000Y-130000000D03*
X89100000Y-130000000D03*
X89100000Y-130000000D03*
D25*
X98600000Y-133750000D03*
D11*
X95100000Y-145500000D03*
X97100000Y-145500000D03*
D29*
X89200000Y-143000000D03*
X90700000Y-143000000D03*
D25*
X90650000Y-135350000D03*
X90650000Y-133850000D03*
D29*
X90700000Y-143000000D03*
X89200000Y-143000000D03*
D25*
X98650000Y-146750000D03*
X98600000Y-135200000D03*
X90650000Y-139000000D03*
X90650000Y-140500000D03*
X90700000Y-146750000D03*
X90700000Y-148250000D03*
X89150000Y-140500000D03*
X90650000Y-140500000D03*
X90650000Y-139000000D03*
D11*
X95100000Y-136350000D03*
X97100000Y-136350000D03*
D25*
X98650000Y-148150000D03*
X90700000Y-153450000D03*
X90700000Y-151950000D03*
X89200000Y-153450000D03*
X90700000Y-151950000D03*
X90700000Y-153450000D03*
D11*
X97050000Y-149250000D03*
X95050000Y-149250000D03*
D25*
X74250000Y-132050000D03*
X74250000Y-130550000D03*
X74250000Y-132050000D03*
X74250000Y-130550000D03*
X77150000Y-148300000D03*
X77150000Y-149800000D03*
X77150000Y-149800000D03*
X77150000Y-148300000D03*
X68500000Y-134500000D03*
X68500000Y-133000000D03*
X68500000Y-134500000D03*
X68500000Y-133000000D03*
X71400000Y-152250000D03*
X71400000Y-150750000D03*
X71400000Y-150750000D03*
X71400000Y-152250000D03*
D37*
X55000000Y-142200000D03*
X55000000Y-141000000D03*
X70650000Y-140800000D03*
X70650000Y-142100000D03*
X74500000Y-140800000D03*
X74500000Y-142100000D03*
D38*
X52000000Y-153500000D03*
X49800000Y-153500000D03*
X62200000Y-132100000D03*
X64400000Y-132100000D03*
X62050000Y-142700000D03*
X64250000Y-142700000D03*
X56750000Y-132500000D03*
X54550000Y-132500000D03*
X93400000Y-129200000D03*
X95600000Y-129200000D03*
X93350000Y-142300000D03*
X95550000Y-142300000D03*
X93800000Y-139850000D03*
X96000000Y-139850000D03*
X93550000Y-152700000D03*
X95750000Y-152700000D03*
D15*
X52900000Y-127500000D03*
D16*
X46100000Y-135200000D03*
X46100000Y-129000000D03*
D15*
X47700000Y-127500000D03*
X47600000Y-155500000D03*
D16*
X46100000Y-154000000D03*
X102300000Y-153900000D03*
D15*
X100700000Y-155500000D03*
D16*
X102500000Y-129000000D03*
D15*
X101000000Y-127500000D03*
D16*
X102450000Y-141500000D03*
X46100000Y-146800000D03*
D15*
X77080000Y-127500000D03*
X89170000Y-127500000D03*
X95215000Y-127500000D03*
X52800000Y-155470000D03*
X58845000Y-155470000D03*
X64890000Y-155470000D03*
X70935000Y-155470000D03*
X76980000Y-155470000D03*
X83025000Y-155470000D03*
X89070000Y-155470000D03*
X95115000Y-155470000D03*
D29*
X50650000Y-143350000D03*
D25*
X56300000Y-146000000D03*
X56300000Y-144500000D03*
D29*
X60650000Y-137400000D03*
X62150000Y-137400000D03*
X57800000Y-147350000D03*
X56300000Y-147350000D03*
D25*
X59350000Y-137300000D03*
X59350000Y-135800000D03*
X81700000Y-129550000D03*
X83200000Y-129550000D03*
X83250000Y-141850000D03*
D29*
X84750000Y-138700000D03*
X83300000Y-137250000D03*
X84850000Y-151650000D03*
X74200000Y-134700000D03*
D25*
X71150000Y-132600000D03*
X71150000Y-131100000D03*
X74400000Y-150400000D03*
X74400000Y-148900000D03*
D29*
X68350000Y-131100000D03*
X69850000Y-131100000D03*
X71450000Y-148850000D03*
X72950000Y-148850000D03*
D39*
X51050000Y-134960000D03*
D40*
X54175000Y-147370000D03*
X59925000Y-148640000D03*
D12*
X58400000Y-135500000D03*
X60600000Y-137400000D03*
D10*
X89365000Y-137250000D03*
X89415000Y-150200000D03*
D35*
X72700000Y-133000000D03*
X70100000Y-131100000D03*
X72700000Y-131100000D03*
X72950000Y-148850000D03*
X75550000Y-150750000D03*
D11*
X49500000Y-182150000D03*
X47500000Y-182150000D03*
X59700000Y-162600000D03*
X61700000Y-162600000D03*
D29*
X49350000Y-180500000D03*
X47850000Y-180500000D03*
X59700000Y-164250000D03*
X61200000Y-164250000D03*
X47850000Y-180500000D03*
X49350000Y-180500000D03*
X56200000Y-161100000D03*
X57700000Y-161100000D03*
X52800000Y-164700000D03*
X54300000Y-164700000D03*
X60800000Y-176650000D03*
X59300000Y-176650000D03*
X52800000Y-164700000D03*
X54300000Y-164700000D03*
D11*
X52300000Y-163050000D03*
X54300000Y-163050000D03*
X61300000Y-174950000D03*
X59300000Y-174950000D03*
X92450000Y-163100000D03*
X90450000Y-163100000D03*
D29*
X86250000Y-160350000D03*
X84750000Y-160350000D03*
X84750000Y-160350000D03*
X86250000Y-160350000D03*
D25*
X94150000Y-164100000D03*
D11*
X90950000Y-176200000D03*
X92950000Y-176200000D03*
D29*
X85100000Y-173600000D03*
X86600000Y-173600000D03*
D25*
X86250000Y-165650000D03*
X86250000Y-164150000D03*
D29*
X86600000Y-173600000D03*
X85100000Y-173600000D03*
D25*
X94550000Y-177200000D03*
X94150000Y-165500000D03*
X86300000Y-170850000D03*
X86600000Y-177350000D03*
X86600000Y-178850000D03*
X84850000Y-170900000D03*
X86300000Y-170850000D03*
X86300000Y-169350000D03*
D11*
X90500000Y-166650000D03*
X92500000Y-166650000D03*
D25*
X94550000Y-178700000D03*
X86550000Y-184100000D03*
X86550000Y-182600000D03*
X85050000Y-184100000D03*
X86550000Y-182600000D03*
X86550000Y-184100000D03*
D11*
X93050000Y-179900000D03*
X91050000Y-179900000D03*
D25*
X73000000Y-162450000D03*
X73000000Y-160950000D03*
X73000000Y-160950000D03*
X73000000Y-162450000D03*
X72550000Y-179200000D03*
X72550000Y-180700000D03*
X72550000Y-179200000D03*
X72550000Y-180700000D03*
X67250000Y-163400000D03*
X67250000Y-164900000D03*
X67250000Y-164900000D03*
X67250000Y-163400000D03*
X66800000Y-181650000D03*
X66800000Y-183150000D03*
X66800000Y-181650000D03*
X66800000Y-183150000D03*
D37*
X53550000Y-170900000D03*
X53550000Y-169700000D03*
X72400000Y-171700000D03*
X68550000Y-172850000D03*
X68550000Y-171700000D03*
X72450000Y-172850000D03*
D38*
X49500000Y-183850000D03*
X47300000Y-183850000D03*
X59650000Y-160900000D03*
X61850000Y-160900000D03*
X59300000Y-173200000D03*
X61500000Y-173200000D03*
X54300000Y-161300000D03*
X52100000Y-161300000D03*
X88900000Y-159650000D03*
X91100000Y-159650000D03*
X89400000Y-172750000D03*
X91600000Y-172750000D03*
X88950000Y-170000000D03*
X91150000Y-170000000D03*
X89350000Y-183200000D03*
X91550000Y-183200000D03*
D15*
X50700000Y-158000000D03*
D16*
X43900000Y-165700000D03*
X43900000Y-159500000D03*
D15*
X45500000Y-158000000D03*
X45400000Y-186000000D03*
D16*
X43900000Y-184500000D03*
X100100000Y-184400000D03*
D15*
X98500000Y-186000000D03*
D16*
X100300000Y-159500000D03*
D15*
X98800000Y-158000000D03*
D16*
X100250000Y-172000000D03*
X43900000Y-177300000D03*
D15*
X74880000Y-158000000D03*
X86970000Y-158000000D03*
X93015000Y-158000000D03*
X50600000Y-185970000D03*
X56645000Y-185970000D03*
X62690000Y-185970000D03*
X68735000Y-185970000D03*
X74780000Y-185970000D03*
X80825000Y-185970000D03*
X86870000Y-185970000D03*
X92915000Y-185970000D03*
D25*
X53650000Y-175300000D03*
X53650000Y-176800000D03*
D29*
X59650000Y-166150000D03*
X58150000Y-166150000D03*
X55150000Y-178450000D03*
X53650000Y-178450000D03*
D25*
X56750000Y-165750000D03*
X56750000Y-164250000D03*
X77450000Y-162200000D03*
X78950000Y-162200000D03*
X79300000Y-172450000D03*
D29*
X80400000Y-169050000D03*
X78900000Y-167600000D03*
X80750000Y-182250000D03*
X72900000Y-165150000D03*
D25*
X70000000Y-163050000D03*
X70000000Y-161550000D03*
X69550000Y-181450000D03*
X69550000Y-179950000D03*
D29*
X67100000Y-161500000D03*
X68600000Y-161500000D03*
X66550000Y-179750000D03*
X68050000Y-179750000D03*
D40*
X51475000Y-177970000D03*
X57225000Y-179240000D03*
D12*
X55900000Y-164250000D03*
X58100000Y-166150000D03*
D10*
X84965000Y-167600000D03*
X85315000Y-180800000D03*
D35*
X71400000Y-161500000D03*
X68800000Y-161500000D03*
X71400000Y-163400000D03*
X70950000Y-181650000D03*
X68350000Y-179750000D03*
X70950000Y-179750000D03*
M02*
