M48
; DRILL file {KiCad (5.1.5-0-10_14)} date Wednesday, April 08, 2020 at 11:51:29 AM
; FORMAT={-:-/ absolute / metric / decimal}
; #@! TF.CreationDate,2020-04-08T11:51:29-04:00
; #@! TF.GenerationSoftware,Kicad,Pcbnew,(5.1.5-0-10_14)
; #@! TF.FileFunction,Plated,1,4,PTH
FMAT,2
METRIC
T1C0.300
T2C0.400
T3C0.500
T4C0.550
T5C0.762
T6C1.000
T7C1.100
T8C1.300
T9C1.600
T10C1.700
T11C2.700
%
G90
G05
T1
X148.29Y-116.06
X163.7Y-102.85
X163.7Y-108.65
X179.6Y-121.15
X177.7Y-73.01
X168.3Y-37.9
X169.8Y-37.9
X132.175Y-36.475
X132.175Y-37.425
X134.775Y-38.375
X182.2Y-66.7
X182.2Y-68.2
X126.575Y-45.5
X128.075Y-45.5
X173.005Y-89.295
X155.2Y-116.2
X136.275Y-36.475
X137.775Y-36.475
X123.3Y-120.55
X124.8Y-120.55
X114.8Y-101.65
X184.1Y-41.0
X151.035Y-107.525
X151.035Y-112.925
X135.15Y-114.9
X174.75Y-113.45
X145.57Y-80.07
X128.3Y-38.375
X172.05Y-64.95
X151.2Y-119.95
X176.42Y-56.75
X170.75Y-32.5
X176.55Y-32.5
X115.85Y-105.3
X142.825Y-40.125
X142.825Y-41.075
X145.425Y-42.025
X169.1Y-68.66
X169.1Y-70.16
X148.3Y-100.45
X138.44Y-77.975
X138.44Y-78.925
X141.06Y-77.975
X138.425Y-43.575
X106.905Y-102.505
X142.81Y-111.64
X187.85Y-45.0
X177.45Y-48.09
X148.325Y-42.15
X188.45Y-71.4
X188.45Y-72.9
X176.45Y-61.0
X101.375Y-41.15
X101.375Y-44.05
X101.375Y-46.95
X176.5Y-125.35
X115.1Y-106.65
X125.09Y-104.075
X126.04Y-106.675
X124.4Y-100.1
X156.8Y-111.1
X135.55Y-103.15
X173.25Y-67.05
X151.2Y-100.45
X126.04Y-101.2
X127.54Y-101.2
X144.17Y-78.14
X146.65Y-119.95
X177.75Y-112.7
X149.575Y-58.075
X149.575Y-59.575
X161.18Y-73.8
X161.18Y-79.6
X187.85Y-49.55
X135.2Y-108.55
X168.35Y-45.0
X179.0Y-39.4
X174.5Y-80.35
X179.95Y-61.0
X181.1Y-123.9
X116.6Y-93.28
X122.4Y-93.28
X176.6Y-117.6
X126.95Y-110.55
X123.55Y-43.85
X125.05Y-43.85
X148.11Y-109.55
X145.22Y-117.56
X149.7Y-119.95
X184.85Y-105.4
X186.75Y-105.4
X104.15Y-98.025
X104.15Y-109.925
X104.15Y-115.825
X104.25Y-122.025
X105.75Y-96.525
X105.75Y-123.525
X110.95Y-96.525
X110.95Y-123.495
X116.995Y-123.495
X123.04Y-123.495
X129.085Y-123.495
X135.13Y-123.495
X141.175Y-123.495
X141.25Y-96.525
X147.22Y-96.525
X147.22Y-123.495
X153.265Y-96.525
X153.265Y-123.495
X158.85Y-123.525
X159.05Y-96.525
X160.45Y-121.925
X160.55Y-98.025
X107.855Y-107.655
X169.9Y-121.15
X169.9Y-122.1
X172.52Y-121.15
X172.52Y-122.1
X173.2Y-80.35
X134.775Y-34.95
X141.06Y-81.62
X127.3Y-116.2
X127.3Y-117.7
X172.05Y-63.45
X147.9Y-58.075
X170.05Y-86.3
X179.65Y-32.55
X185.45Y-32.55
X115.505Y-39.12
X117.95Y-40.9
X172.05Y-41.0
X187.85Y-46.5
X169.1Y-108.0
X169.1Y-113.8
X179.32Y-73.01
X112.18Y-104.03
X113.13Y-106.63
X185.46Y-50.98
X145.5Y-75.175
X169.55Y-81.4
X142.83Y-108.86
X179.55Y-123.85
X178.155Y-88.345
X156.8Y-109.6
X174.3Y-122.85
X173.7Y-49.6
X168.0Y-71.8
X123.19Y-111.42
X111.6Y-100.1
X163.65Y-111.75
X163.65Y-117.55
X172.755Y-107.9
X172.8Y-102.0
X172.8Y-113.8
X174.2Y-100.615
X174.2Y-115.2
X179.6Y-100.615
X179.6Y-115.185
X185.1Y-100.615
X185.1Y-115.2
X186.5Y-102.0
X186.5Y-113.8
X148.1Y-110.9
X149.8Y-100.45
X119.025Y-69.525
X164.425Y-37.15
X164.425Y-42.935
X164.425Y-48.98
X164.425Y-54.95
X164.425Y-85.25
X164.425Y-90.45
X165.925Y-35.65
X165.925Y-92.05
X183.725Y-92.05
X189.825Y-35.75
X189.925Y-91.95
X191.395Y-42.935
X191.395Y-48.98
X191.395Y-55.025
X191.395Y-61.07
X191.395Y-67.115
X191.395Y-73.16
X191.395Y-79.205
X191.395Y-85.25
X191.425Y-37.35
X191.425Y-90.45
X156.8Y-119.85
X139.42Y-111.95
X129.15Y-105.35
X174.6Y-68.25
X132.75Y-104.15
X110.055Y-111.305
X184.63Y-71.4
X185.9Y-71.4
X111.65Y-116.35
X115.65Y-116.35
X168.35Y-46.4
X176.0Y-102.4
X178.8Y-48.1
X161.19Y-61.85
X161.19Y-67.65
X123.6Y-41.95
X187.75Y-39.4
X171.95Y-123.5
X174.3Y-118.3
X141.4Y-45.15
X171.05Y-60.65
X178.45Y-69.25
X113.13Y-110.53
X124.575Y-61.05
X126.575Y-41.95
X129.175Y-41.95
X129.175Y-43.85
X173.45Y-59.55
X173.45Y-61.05
X156.9Y-100.4
X128.55Y-93.29
X134.35Y-93.29
X179.54Y-53.39
X139.45Y-108.52
X176.76Y-53.37
X101.375Y-32.7
X101.375Y-38.5
X127.95Y-106.7
X146.6Y-105.8
X144.6Y-38.625
X146.1Y-38.625
X110.055Y-109.83
X176.397Y-105.465
X176.397Y-108.005
X181.603Y-106.735
X171.975Y-71.11
X174.575Y-70.16
X123.19Y-109.8
X168.3Y-39.3
X100.175Y-80.825
X137.7Y-38.375
X121.75Y-81.475
X123.02Y-81.475
X124.25Y-86.675
X124.29Y-81.475
X126.83Y-81.475
X128.06Y-86.675
X130.65Y-81.475
X151.625Y-56.275
X151.625Y-60.275
X169.1Y-124.95
X184.25Y-80.55
X184.25Y-84.55
X111.65Y-113.95
X115.65Y-113.95
X168.0Y-84.7
X171.6Y-95.25
X177.4Y-95.25
X129.6Y-120.5
X131.1Y-120.5
X147.025Y-75.175
X182.8Y-61.05
X135.2Y-112.05
X158.2Y-118.35
X158.2Y-119.85
X175.425Y-45.165
X180.825Y-45.165
X177.5Y-39.4
X181.85Y-80.55
X181.85Y-84.55
X155.2Y-104.15
X124.8Y-116.73
X124.8Y-118.0
X100.95Y-101.1
X100.95Y-106.9
X183.4Y-103.95
X169.7Y-78.25
X168.35Y-47.9
X187.065Y-119.426
X148.475Y-40.125
X181.2Y-119.65
X181.2Y-121.15
X188.4Y-65.1
X188.4Y-66.6
X186.25Y-38.0
X187.75Y-38.0
X179.3Y-113.5
X178.0Y-125.35
X138.425Y-49.575
X171.93Y-84.02
X171.93Y-84.97
X174.53Y-83.07
X184.1Y-68.9
X185.6Y-68.9
X141.425Y-51.075
X117.95Y-101.8
X178.43Y-83.07
X187.85Y-48.0
X137.93Y-114.94
X106.35Y-85.8
X106.45Y-70.85
X128.6Y-39.85
X128.0Y-114.3
X129.5Y-114.3
X147.31Y-80.07
X182.84Y-58.27
X135.15Y-105.55
X136.65Y-105.55
X114.005Y-35.395
X158.3Y-100.4
X158.3Y-101.9
X189.9Y-105.4
X189.9Y-111.2
X183.96Y-47.91
X179.85Y-56.78
X131.25Y-104.15
X151.525Y-47.75
X148.2Y-119.95
X181.95Y-109.8
T2
X99.35Y-102.65
X99.35Y-105.35
X99.9Y-42.7
X100.025Y-34.225
X100.1Y-102.65
X100.1Y-105.35
X100.25Y-45.375
X100.5Y-36.925
X100.6Y-42.7
X100.7Y-34.225
X100.85Y-102.65
X100.85Y-105.35
X101.025Y-45.375
X101.2Y-36.925
X101.4Y-34.225
X101.4Y-42.7
X101.6Y-102.65
X101.6Y-105.35
X101.8Y-45.375
X101.925Y-36.925
X102.1Y-42.7
X102.125Y-34.225
X102.35Y-102.65
X102.35Y-105.35
X102.525Y-45.375
X102.625Y-36.9
X102.8Y-42.7
X102.825Y-34.2
X103.1Y-102.65
X103.1Y-105.35
X103.275Y-45.375
X103.325Y-36.875
X103.5Y-42.7
X103.525Y-34.175
X103.85Y-102.65
X103.85Y-105.35
X104.05Y-36.9
X104.075Y-45.375
X104.25Y-34.2
X104.3Y-42.7
X104.6Y-102.65
X104.6Y-105.35
X104.85Y-45.35
X104.9Y-34.2
X104.9Y-36.9
X105.0Y-42.7
X105.35Y-102.65
X105.35Y-105.35
X105.6Y-34.2
X105.65Y-45.35
X105.7Y-36.9
X105.8Y-42.7
X106.3Y-34.2
X106.425Y-45.375
X106.5Y-37.1
X106.5Y-42.7
X107.0Y-34.2
X107.0Y-37.6
X107.15Y-45.35
X107.2Y-42.6
X107.6Y-38.1
X107.7Y-34.2
X107.9Y-42.6
X107.925Y-45.35
X108.0Y-38.7
X108.15Y-102.6
X108.4Y-34.2
X108.7Y-38.7
X108.7Y-42.6
X108.7Y-45.35
X108.8Y-34.8
X108.85Y-102.6
X109.3Y-35.4
X109.4Y-40.4
X109.4Y-41.9
X109.4Y-42.6
X109.475Y-49.725
X109.5Y-38.7
X109.5Y-41.1
X109.5Y-46.75
X109.5Y-47.45
X109.5Y-48.175
X109.5Y-48.9
X109.525Y-45.3
X109.525Y-46.025
X109.55Y-102.6
X109.7Y-39.8
X109.8Y-35.9
X109.95Y-80.875
X110.2Y-38.7
X110.3Y-39.4
X110.3Y-102.6
X110.5Y-36.0
X110.9Y-38.7
X111.3Y-36.0
X112.0Y-36.0
X112.225Y-41.8
X112.225Y-42.55
X112.225Y-46.025
X112.225Y-46.8
X112.225Y-47.6
X112.225Y-48.375
X112.225Y-49.125
X112.225Y-49.9
X112.25Y-41.1
X112.5Y-40.45
X112.7Y-36.0
X112.75Y-99.55
X113.075Y-46.575
X113.2Y-42.75
X113.25Y-99.05
X113.25Y-99.05
X113.55Y-47.2
X113.8Y-98.6
X113.925Y-40.025
X113.925Y-43.375
X114.075Y-47.725
X114.425Y-43.925
X114.45Y-98.6
X114.6Y-48.25
X114.875Y-44.475
X115.15Y-98.6
X115.175Y-48.875
X115.3Y-102.75
X115.3Y-103.45
X115.4Y-45.0
X115.85Y-98.6
X115.925Y-45.6
X116.025Y-48.925
X116.45Y-98.9
X116.55Y-46.15
X116.775Y-48.925
X116.95Y-35.9
X117.0Y-99.35
X117.125Y-46.725
X117.175Y-38.875
X117.5Y-99.9
X117.55Y-48.875
X117.675Y-35.925
X117.775Y-39.225
X117.875Y-46.75
X118.1Y-91.7
X118.1Y-92.4
X118.1Y-93.1
X118.1Y-93.8
X118.1Y-94.5
X118.1Y-95.2
X118.1Y-95.9
X118.1Y-96.6
X118.1Y-98.1
X118.1Y-98.8
X118.1Y-99.5
X118.1Y-100.5
X118.25Y-48.925
X118.4Y-35.9
X118.6Y-46.725
X118.625Y-39.25
X118.7Y-56.775
X119.0Y-48.875
X119.15Y-35.9
X119.3Y-46.725
X119.3Y-105.05
X119.45Y-84.25
X119.6Y-114.25
X119.825Y-48.9
X119.925Y-35.9
X120.0Y-105.3
X120.025Y-46.725
X120.525Y-39.425
X120.625Y-48.875
X120.675Y-35.9
X120.7Y-38.75
X120.75Y-46.725
X120.8Y-105.35
X120.9Y-91.7
X120.9Y-92.4
X120.9Y-93.1
X120.9Y-93.8
X120.9Y-94.5
X120.9Y-95.2
X120.9Y-95.9
X120.9Y-96.6
X120.9Y-98.1
X120.9Y-98.8
X120.9Y-99.5
X120.9Y-100.2
X120.9Y-100.9
X120.9Y-101.8
X121.4Y-35.9
X121.4Y-48.85
X121.4Y-102.45
X121.425Y-38.725
X121.475Y-46.725
X122.15Y-35.875
X122.15Y-102.6
X122.175Y-38.725
X122.25Y-60.55
X122.3Y-78.65
X122.9Y-35.85
X122.9Y-102.6
X122.925Y-38.925
X123.1Y-48.9
X123.6Y-35.825
X123.925Y-48.875
X124.1Y-72.775
X124.275Y-36.175
X124.675Y-48.85
X124.85Y-36.7
X125.45Y-48.85
X125.45Y-99.15
X125.525Y-36.95
X125.925Y-46.5
X126.05Y-98.55
X126.275Y-36.95
X126.275Y-48.85
X126.65Y-98.0
X127.05Y-36.95
X127.4Y-97.9
X127.5Y-103.0
X127.825Y-36.95
X128.15Y-97.9
X128.35Y-78.575
X128.55Y-36.925
X128.9Y-97.9
X129.15Y-46.475
X129.6Y-97.9
X129.675Y-48.875
X129.925Y-46.475
X130.3Y-97.9
X130.4Y-48.85
X131.125Y-48.875
X131.2Y-78.575
X131.825Y-48.875
X132.15Y-46.525
X132.6Y-48.875
X132.6Y-97.9
X132.75Y-119.65
X132.925Y-46.525
X133.4Y-97.9
X133.45Y-48.85
X133.625Y-46.5
X134.15Y-97.9
X134.25Y-48.85
X134.35Y-46.475
X134.85Y-97.9
X134.925Y-48.85
X135.1Y-46.5
X135.525Y-71.6
X135.55Y-97.9
X135.65Y-48.85
X135.9Y-46.475
X136.0Y-54.125
X136.01Y-57.33
X136.08Y-60.0
X136.3Y-97.9
X136.325Y-48.875
X136.6Y-46.45
X136.65Y-117.3
X136.725Y-54.125
X136.825Y-41.35
X137.05Y-48.925
X137.05Y-49.775
X137.05Y-50.525
X137.05Y-97.9
X137.425Y-46.425
X137.425Y-51.25
X137.45Y-54.125
X137.575Y-41.35
X137.675Y-65.775
X137.8Y-97.9
X137.95Y-117.35
X138.0Y-48.95
X138.025Y-50.225
X138.2Y-44.725
X138.2Y-51.675
X138.2Y-52.425
X138.2Y-54.125
X138.225Y-45.425
X138.225Y-46.2
X138.3Y-41.35
X138.3Y-42.425
X138.4Y-101.5
X138.55Y-97.9
X138.75Y-48.95
X138.8Y-38.8
X138.85Y-50.25
X139.1Y-101.5
X139.25Y-97.9
X139.6Y-38.8
X139.85Y-101.5
X140.0Y-97.9
X140.75Y-97.9
X140.94Y-59.67
X141.01Y-57.59
X141.35Y-98.3
X141.4Y-55.3
X141.4Y-56.025
X141.4Y-56.75
X141.425Y-54.55
X141.45Y-52.3
X141.475Y-43.35
X141.475Y-44.025
X141.475Y-46.65
X141.475Y-47.4
X141.475Y-48.125
X141.475Y-48.875
X141.475Y-49.65
X141.5Y-103.15
X141.825Y-53.275
X141.9Y-98.8
X142.175Y-43.35
X142.4Y-99.3
X142.575Y-38.7
X142.95Y-43.35
X143.35Y-38.725
X144.15Y-56.575
X144.2Y-104.8
X144.7Y-105.3
X144.95Y-101.15
X145.45Y-105.65
X145.5Y-101.65
X146.65Y-108.15
X146.7Y-112.2
X147.1Y-106.75
X147.1Y-107.45
X147.1Y-113.6
X147.2Y-112.9
X147.25Y-103.0
X147.95Y-103.0
X149.2Y-103.0
X149.6Y-116.0
X149.85Y-103.35
X149.85Y-104.2
X150.4Y-116.0
X151.2Y-116.0
X151.9Y-116.1
X152.0Y-104.3
X152.6Y-116.1
X152.7Y-104.3
X152.9Y-109.3
X152.9Y-111.1
X153.3Y-116.1
X153.4Y-104.3
X153.6Y-107.2
X153.6Y-107.9
X153.6Y-108.7
X153.6Y-111.7
X153.6Y-112.4
X153.6Y-113.2
X154.0Y-116.1
X154.1Y-104.3
X154.3Y-107.5
X154.3Y-108.2
X154.3Y-112.2
X154.4Y-112.9
X155.0Y-108.6
X155.0Y-112.1
X155.7Y-108.6
X155.7Y-112.1
X156.4Y-108.6
X156.4Y-112.1
X156.7Y-115.6
X156.8Y-104.8
X157.1Y-108.6
X157.1Y-112.1
X157.1Y-112.1
X157.8Y-108.6
X157.8Y-112.1
X158.5Y-108.6
X158.5Y-112.1
X158.8Y-108.0
X158.8Y-112.8
X159.0Y-107.3
X159.4Y-113.2
X159.6Y-75.3
X159.6Y-78.1
X159.7Y-107.1
X159.7Y-116.0
X160.3Y-75.3
X160.3Y-78.1
X160.4Y-104.4
X160.4Y-107.1
X160.4Y-113.3
X160.4Y-116.0
X161.0Y-75.3
X161.0Y-78.1
X161.1Y-104.4
X161.1Y-104.4
X161.1Y-107.1
X161.1Y-107.1
X161.1Y-113.3
X161.1Y-113.3
X161.1Y-116.0
X161.1Y-116.0
X161.7Y-75.3
X161.7Y-78.1
X161.8Y-104.4
X161.8Y-107.1
X161.8Y-113.3
X161.8Y-116.0
X162.4Y-75.3
X162.4Y-78.1
X162.5Y-104.4
X162.5Y-107.1
X162.5Y-113.3
X162.5Y-116.0
X163.1Y-75.3
X163.1Y-78.1
X163.2Y-104.4
X163.2Y-107.1
X163.2Y-113.3
X163.2Y-116.0
X163.8Y-75.3
X163.8Y-78.1
X163.9Y-104.4
X163.9Y-107.1
X163.9Y-113.3
X163.9Y-116.0
X164.5Y-75.3
X164.5Y-78.1
X164.6Y-104.4
X164.6Y-107.1
X164.6Y-113.3
X164.6Y-116.0
X165.3Y-104.4
X165.3Y-107.1
X165.3Y-113.3
X165.3Y-116.0
X165.8Y-55.45
X165.8Y-56.2
X165.8Y-56.95
X165.8Y-57.65
X165.8Y-58.4
X165.8Y-59.15
X165.8Y-59.9
X165.8Y-60.65
X165.8Y-61.35
X165.8Y-62.05
X165.8Y-62.8
X165.8Y-63.6
X165.8Y-65.9
X165.8Y-66.6
X165.8Y-67.3
X165.8Y-68.05
X165.8Y-68.8
X165.9Y-69.55
X166.0Y-75.3
X166.2Y-54.85
X166.45Y-70.15
X166.7Y-54.3
X166.7Y-75.3
X167.05Y-70.75
X167.2Y-53.8
X167.4Y-75.3
X167.8Y-109.5
X167.8Y-112.2
X168.1Y-75.3
X168.5Y-109.5
X168.5Y-112.2
X168.8Y-75.3
X169.05Y-51.25
X169.2Y-109.5
X169.2Y-112.2
X169.4Y-56.35
X169.4Y-57.1
X169.4Y-57.8
X169.55Y-50.7
X169.7Y-75.3
X169.9Y-109.5
X169.9Y-112.2
X170.35Y-74.8
X170.5Y-73.3
X170.5Y-74.05
X170.6Y-109.5
X170.6Y-112.2
X170.9Y-47.0
X170.9Y-48.25
X170.9Y-48.95
X170.9Y-68.7
X171.05Y-54.7
X171.25Y-46.35
X171.3Y-109.5
X171.3Y-109.5
X171.3Y-112.2
X172.1Y-46.35
X172.2Y-42.1
X172.2Y-42.8
X172.2Y-43.5
X172.2Y-44.2
X172.3Y-30.9
X172.3Y-31.6
X172.3Y-32.3
X172.3Y-33.0
X172.3Y-33.7
X172.3Y-34.4
X172.3Y-35.1
X172.3Y-35.1
X172.3Y-35.8
X172.7Y-39.4
X172.7Y-52.0
X172.95Y-76.9
X173.15Y-90.85
X173.15Y-91.6
X173.15Y-92.35
X173.15Y-93.1
X173.15Y-93.85
X173.15Y-94.6
X173.15Y-95.35
X173.15Y-96.1
X173.15Y-96.85
X173.2Y-51.5
X173.2Y-76.2
X173.25Y-75.4
X173.55Y-50.75
X174.0Y-109.8
X174.65Y-49.1
X175.0Y-30.9
X175.0Y-31.6
X175.0Y-32.3
X175.0Y-33.0
X175.0Y-33.7
X175.0Y-34.4
X175.0Y-35.1
X175.0Y-35.1
X175.0Y-35.8
X175.0Y-36.5
X175.1Y-42.6
X175.2Y-37.2
X175.35Y-49.1
X175.4Y-41.9
X175.4Y-110.8
X175.6Y-114.1
X175.8Y-42.6
X175.85Y-90.85
X175.85Y-91.6
X175.85Y-92.35
X175.85Y-93.1
X175.85Y-93.85
X175.85Y-94.6
X175.85Y-95.35
X175.85Y-96.1
X175.85Y-96.85
X175.9Y-37.4
X176.0Y-109.2
X176.05Y-49.55
X176.1Y-41.9
X176.1Y-110.9
X176.3Y-114.1
X176.5Y-37.7
X176.5Y-38.4
X176.5Y-39.1
X176.5Y-39.8
X176.5Y-40.5
X176.5Y-41.2
X176.6Y-42.6
X176.7Y-109.4
X176.8Y-110.9
X177.2Y-43.3
X177.5Y-109.4
X177.5Y-110.9
X177.5Y-114.1
X178.2Y-109.4
X178.2Y-111.3
X178.2Y-114.1
X179.0Y-43.3
X179.0Y-109.4
X179.6Y-42.6
X179.7Y-109.8
X179.9Y-110.6
X180.0Y-37.7
X180.0Y-38.4
X180.0Y-39.1
X180.0Y-39.1
X180.0Y-39.8
X180.0Y-40.5
X180.0Y-41.2
X180.1Y-41.9
X180.1Y-49.5
X180.3Y-42.6
X180.4Y-114.1
X180.6Y-111.3
X180.7Y-37.4
X180.7Y-113.5
X180.8Y-41.8
X180.8Y-49.0
X181.1Y-36.8
X181.1Y-42.6
X181.2Y-30.9
X181.2Y-31.6
X181.2Y-32.3
X181.2Y-33.0
X181.2Y-33.7
X181.2Y-34.4
X181.2Y-35.1
X181.2Y-35.1
X181.2Y-35.8
X181.5Y-49.1
X182.15Y-76.6
X183.5Y-39.5
X183.9Y-30.9
X183.9Y-31.6
X183.9Y-32.3
X183.9Y-33.0
X183.9Y-33.7
X183.9Y-34.4
X183.9Y-35.1
X183.9Y-35.1
X183.9Y-35.8
X183.9Y-36.5
X183.9Y-45.0
X183.9Y-45.8
X183.9Y-46.6
X184.0Y-42.2
X184.0Y-42.9
X184.0Y-43.6
X184.0Y-44.3
X185.0Y-106.9
X185.2Y-59.55
X185.25Y-58.25
X185.7Y-106.9
X186.5Y-106.9
X186.5Y-109.6
X187.2Y-106.9
X187.2Y-109.6
X187.55Y-63.45
X187.9Y-106.9
X187.9Y-109.6
X188.6Y-106.9
X188.6Y-109.6
X189.3Y-106.9
X189.3Y-109.6
X190.0Y-106.9
X190.0Y-109.6
X190.7Y-106.9
X190.7Y-109.6
X191.4Y-106.9
X191.4Y-109.6
T5
X156.35Y-36.98
X156.35Y-39.52
X137.28Y-55.96
X137.28Y-58.5
X137.28Y-61.04
X139.82Y-55.96
X139.82Y-58.5
X139.82Y-61.04
T6
X125.99Y-126.2
X128.53Y-126.2
X131.07Y-126.2
X133.61Y-126.2
X136.15Y-126.2
X138.69Y-126.2
X128.9Y-55.97
X128.9Y-58.51
X128.9Y-61.05
X194.1Y-57.51
X194.1Y-60.05
X194.1Y-62.59
X194.1Y-65.13
X194.1Y-67.67
X194.1Y-70.21
X153.925Y-36.05
X153.925Y-40.55
T7
X100.74Y-50.88
X100.74Y-66.12
X103.28Y-50.88
X103.28Y-66.12
X105.82Y-50.88
X105.82Y-66.12
X108.36Y-50.88
X108.36Y-66.12
X110.9Y-50.88
X110.9Y-66.12
X113.44Y-50.88
X113.44Y-66.12
X115.98Y-50.88
X115.98Y-66.12
X118.52Y-50.88
X118.52Y-66.12
X121.06Y-50.88
X121.06Y-66.12
X123.6Y-50.88
X123.6Y-66.12
X126.14Y-50.88
X126.14Y-66.12
X128.68Y-50.88
X128.68Y-66.12
X131.22Y-50.88
X131.22Y-66.12
X133.76Y-50.88
X133.76Y-53.42
X133.76Y-55.96
X133.76Y-58.5
X133.76Y-61.04
X133.76Y-63.58
X133.76Y-66.12
T8
X151.425Y-34.8
X151.425Y-41.8
T9
X111.15Y-73.25
X111.15Y-83.4
T10
X118.55Y-43.5
X118.55Y-73.5
T11
X104.075Y-77.125
T3
G00X185.81Y-124.959
M15
G01X185.35Y-124.5
M16
G05
G00X190.759Y-120.01
M15
G01X190.3Y-119.55
M16
G05
T4
G00X184.272Y-122.219
M15
G01X184.484Y-122.007
M16
G05
G00X187.807Y-118.684
M15
G01X188.019Y-118.472
M16
G05
T6
G00X169.4Y-102.9
M15
G01X169.4Y-103.9
M16
G05
G00X147.475Y-63.31
M15
G01X147.475Y-63.31
M16
G05
G00X147.475Y-65.85
M15
G01X147.475Y-65.85
M16
G05
G00X147.475Y-68.39
M15
G01X147.475Y-68.39
M16
G05
G00X147.475Y-70.93
M15
G01X147.475Y-70.93
M16
G05
G00X153.279Y-76.996
M15
G01X152.571Y-77.704
M16
G05
G00X187.2Y-95.6
M15
G01X186.2Y-95.6
M16
G05
G00X101.6Y-116.8
M15
G01X101.6Y-115.8
M16
G05
T0
M30
