G04 #@! TF.GenerationSoftware,KiCad,Pcbnew,(5.1.5-0-10_14)*
G04 #@! TF.CreationDate,2020-04-08T11:50:53-04:00*
G04 #@! TF.ProjectId,FEA,4645412e-6b69-4636-9164-5f7063625858,rev?*
G04 #@! TF.SameCoordinates,Original*
G04 #@! TF.FileFunction,Soldermask,Top*
G04 #@! TF.FilePolarity,Negative*
%FSLAX46Y46*%
G04 Gerber Fmt 4.6, Leading zero omitted, Abs format (unit mm)*
G04 Created by KiCad (PCBNEW (5.1.5-0-10_14)) date 2020-04-08 11:50:53*
%MOMM*%
%LPD*%
G04 APERTURE LIST*
%ADD10R,0.900000X1.300000*%
%ADD11R,4.440000X1.400000*%
%ADD12R,1.400000X4.440000*%
%ADD13R,2.400000X2.000000*%
%ADD14R,1.150000X1.200000*%
%ADD15R,1.200000X1.150000*%
%ADD16R,1.000000X1.950000*%
%ADD17C,0.100000*%
%ADD18R,1.000000X1.500000*%
%ADD19R,1.150000X1.600000*%
%ADD20R,1.600000X1.150000*%
%ADD21R,1.200000X1.200000*%
%ADD22R,1.300000X1.600000*%
%ADD23R,2.100000X2.100000*%
%ADD24O,2.100000X2.100000*%
%ADD25R,1.300000X0.900000*%
%ADD26R,4.400000X2.400000*%
%ADD27R,4.400000X0.780000*%
%ADD28R,2.400000X4.400000*%
%ADD29R,0.780000X4.400000*%
%ADD30R,2.400000X0.900000*%
%ADD31R,2.000000X2.400000*%
%ADD32R,4.210000X1.400000*%
%ADD33R,1.400000X4.210000*%
%ADD34R,1.100000X1.700000*%
%ADD35R,1.943000X1.162000*%
%ADD36R,1.620000X1.020000*%
%ADD37R,2.200000X2.900000*%
%ADD38C,1.350000*%
%ADD39C,1.400000*%
%ADD40R,1.162000X1.800000*%
%ADD41R,1.400000X1.900000*%
%ADD42R,2.400000X3.200000*%
%ADD43C,3.100000*%
%ADD44R,1.924000X1.924000*%
%ADD45C,1.924000*%
%ADD46R,1.900000X1.700000*%
%ADD47R,1.700000X1.900000*%
%ADD48R,2.400000X1.100000*%
%ADD49R,1.500000X1.000000*%
%ADD50R,2.200000X1.900000*%
%ADD51C,2.000000*%
%ADD52C,2.432000*%
%ADD53C,2.400000*%
%ADD54O,4.400000X2.400000*%
%ADD55C,2.100000*%
%ADD56R,1.950000X1.000000*%
%ADD57R,1.600000X1.300000*%
%ADD58R,0.900000X2.400000*%
G04 APERTURE END LIST*
D10*
X153850000Y-105650000D03*
X152350000Y-105650000D03*
D11*
X110950000Y-96525000D03*
D12*
X104150000Y-98025000D03*
D11*
X105750000Y-96525000D03*
X105750000Y-123525000D03*
D12*
X104250000Y-122025000D03*
X160450000Y-121925000D03*
D11*
X158850000Y-123525000D03*
D12*
X160550000Y-98025000D03*
D11*
X159050000Y-96525000D03*
D12*
X104150000Y-115825000D03*
D11*
X147220000Y-96525000D03*
X153265000Y-96525000D03*
X110950000Y-123495000D03*
X116995000Y-123495000D03*
X123040000Y-123495000D03*
X129085000Y-123495000D03*
X135130000Y-123495000D03*
X141175000Y-123495000D03*
X147220000Y-123495000D03*
X153265000Y-123495000D03*
D12*
X104150000Y-109925000D03*
D11*
X141250000Y-96525000D03*
D13*
X115650000Y-116350000D03*
X111650000Y-116350000D03*
D14*
X133300000Y-116650000D03*
X133300000Y-118150000D03*
D15*
X115850000Y-105300000D03*
D16*
X152305000Y-112925000D03*
X152305000Y-107525000D03*
X151035000Y-112925000D03*
X151035000Y-107525000D03*
X149765000Y-112925000D03*
X149765000Y-107525000D03*
X148495000Y-112925000D03*
X148495000Y-107525000D03*
D17*
G36*
X103550000Y-118500000D02*
G01*
X99650000Y-118500000D01*
X99650000Y-114100000D01*
X103550000Y-114100000D01*
X103550000Y-118500000D01*
G37*
D18*
X125090000Y-106675000D03*
X126040000Y-106675000D03*
X126040000Y-104075000D03*
X125090000Y-104075000D03*
X124140000Y-106675000D03*
X124140000Y-104075000D03*
X111230000Y-104030000D03*
X111230000Y-106630000D03*
X112180000Y-104030000D03*
X113130000Y-104030000D03*
X113130000Y-106630000D03*
X112180000Y-106630000D03*
D13*
X115650000Y-113950000D03*
X111650000Y-113950000D03*
D15*
X115100000Y-106650000D03*
X111555000Y-111305000D03*
X110055000Y-111305000D03*
X111555000Y-109830000D03*
X110055000Y-109830000D03*
D19*
X116390000Y-101030000D03*
X116390000Y-102930000D03*
D15*
X127950000Y-106700000D03*
X124690000Y-109800000D03*
X123190000Y-109800000D03*
X123190000Y-111420000D03*
X124690000Y-111420000D03*
X129150000Y-105350000D03*
D20*
X127750000Y-99740000D03*
X129650000Y-99740000D03*
D14*
X132750000Y-102650000D03*
X132750000Y-104150000D03*
D19*
X137350000Y-101800000D03*
X137350000Y-99900000D03*
D15*
X148110000Y-109550000D03*
X148100000Y-110900000D03*
D14*
X145220000Y-117560000D03*
X145220000Y-116060000D03*
D15*
X156800000Y-111100000D03*
X155300000Y-111100000D03*
X123300000Y-120550000D03*
X124800000Y-120550000D03*
X128000000Y-114300000D03*
X129500000Y-114300000D03*
X131100000Y-120500000D03*
X129600000Y-120500000D03*
X121250000Y-115300000D03*
X122750000Y-115300000D03*
D14*
X149800000Y-100450000D03*
X149700000Y-119950000D03*
X151200000Y-100450000D03*
X151200000Y-119950000D03*
X158300000Y-100400000D03*
X158300000Y-101900000D03*
X158200000Y-119850000D03*
X158200000Y-118350000D03*
X156900000Y-100400000D03*
X156800000Y-119850000D03*
D21*
X106905000Y-105255000D03*
X105955000Y-107655000D03*
X107855000Y-107655000D03*
D22*
X113130000Y-110530000D03*
X111600000Y-100100000D03*
X126950000Y-110550000D03*
X124400000Y-100100000D03*
D23*
X138690000Y-126200000D03*
D24*
X136150000Y-126200000D03*
X133610000Y-126200000D03*
X131070000Y-126200000D03*
X128530000Y-126200000D03*
X125990000Y-126200000D03*
D10*
X135150000Y-114900000D03*
X135150000Y-105550000D03*
X136650000Y-105550000D03*
D25*
X135200000Y-112050000D03*
X135200000Y-108550000D03*
X106905000Y-104005000D03*
X106905000Y-102505000D03*
D10*
X109805000Y-104050000D03*
X108305000Y-104050000D03*
X112730000Y-108330000D03*
X111230000Y-108330000D03*
D25*
X109530000Y-107180000D03*
X109530000Y-105680000D03*
X113130000Y-102530000D03*
X113130000Y-101030000D03*
X114800000Y-100150000D03*
X114800000Y-101650000D03*
X119550000Y-102100000D03*
X119550000Y-103600000D03*
D10*
X121140000Y-104075000D03*
X122640000Y-104075000D03*
X124140000Y-108270000D03*
X125640000Y-108270000D03*
D25*
X122440000Y-105625000D03*
X122440000Y-107125000D03*
X126040000Y-102775000D03*
X126040000Y-101275000D03*
D10*
X127540000Y-101200000D03*
X126040000Y-101200000D03*
D25*
X129700000Y-102650000D03*
X129700000Y-104150000D03*
X131250000Y-102650000D03*
X131250000Y-104150000D03*
X133050000Y-99900000D03*
X133050000Y-101400000D03*
X131450000Y-99750000D03*
X131450000Y-98250000D03*
D10*
X134500000Y-99900000D03*
X136000000Y-99900000D03*
D25*
X135550000Y-101650000D03*
X135550000Y-103150000D03*
X146600000Y-105800000D03*
X146600000Y-104300000D03*
X148320000Y-105830000D03*
X148320000Y-104330000D03*
D10*
X151180000Y-105630000D03*
X149680000Y-105630000D03*
D25*
X158300000Y-105750000D03*
X158300000Y-104250000D03*
X155200000Y-104150000D03*
X155200000Y-105650000D03*
X139450000Y-108520000D03*
X139420000Y-111950000D03*
D10*
X153850000Y-114700000D03*
X152350000Y-114700000D03*
D25*
X155200000Y-114700000D03*
X155200000Y-116200000D03*
X137930000Y-114940000D03*
X158100000Y-116150000D03*
X158100000Y-114650000D03*
D10*
X149640000Y-114760000D03*
X151140000Y-114760000D03*
D25*
X146730000Y-114560000D03*
X146730000Y-116060000D03*
X148290000Y-114560000D03*
X148290000Y-116060000D03*
D10*
X155300000Y-109600000D03*
X156800000Y-109600000D03*
X121300000Y-116800000D03*
X122800000Y-116800000D03*
D25*
X131700000Y-116650000D03*
X131700000Y-118150000D03*
X127300000Y-117700000D03*
X127300000Y-116200000D03*
X146650000Y-119950000D03*
X148300000Y-100450000D03*
X148200000Y-119950000D03*
D26*
X100950000Y-101100000D03*
D27*
X100950000Y-104000000D03*
D26*
X100950000Y-106900000D03*
D28*
X116600000Y-93280000D03*
D29*
X119500000Y-93280000D03*
D28*
X122400000Y-93280000D03*
X128550000Y-93290000D03*
D29*
X131450000Y-93290000D03*
D28*
X134350000Y-93290000D03*
D26*
X163700000Y-108650000D03*
D27*
X163700000Y-105750000D03*
D26*
X163700000Y-102850000D03*
X163650000Y-111750000D03*
D27*
X163650000Y-114650000D03*
D26*
X163650000Y-117550000D03*
D30*
X129600000Y-116730000D03*
X129600000Y-118000000D03*
X129600000Y-119270000D03*
X129600000Y-115460000D03*
X124800000Y-119270000D03*
X124800000Y-118000000D03*
X124800000Y-116730000D03*
X124800000Y-115460000D03*
D25*
X117950000Y-103300000D03*
X117950000Y-101800000D03*
D15*
X156000000Y-107000000D03*
X157500000Y-107000000D03*
X157350000Y-113400000D03*
X155850000Y-113400000D03*
D31*
X142830000Y-108860000D03*
X142810000Y-111640000D03*
D32*
X179600000Y-115185000D03*
X179600000Y-100615000D03*
D33*
X172755000Y-107900000D03*
X172800000Y-102000000D03*
D32*
X174200000Y-100615000D03*
D33*
X172800000Y-113800000D03*
D32*
X174200000Y-115200000D03*
D33*
X186500000Y-102000000D03*
D32*
X185100000Y-100615000D03*
D33*
X186500000Y-113800000D03*
D32*
X185100000Y-115200000D03*
D25*
X179300000Y-112000000D03*
X179300000Y-113500000D03*
X174500000Y-107050000D03*
X174500000Y-108550000D03*
X174500000Y-104150000D03*
X174500000Y-105650000D03*
X183500000Y-106950000D03*
X183500000Y-108450000D03*
D10*
X183450000Y-109800000D03*
X181950000Y-109800000D03*
D14*
X183400000Y-103950000D03*
X183400000Y-105450000D03*
D17*
G36*
X167450000Y-101200000D02*
G01*
X171350000Y-101200000D01*
X171350000Y-105600000D01*
X167450000Y-105600000D01*
X167450000Y-101200000D01*
G37*
D15*
X174500000Y-102400000D03*
X176000000Y-102400000D03*
D26*
X169100000Y-108000000D03*
D27*
X169100000Y-110900000D03*
D26*
X169100000Y-113800000D03*
X189900000Y-111200000D03*
D27*
X189900000Y-108300000D03*
D26*
X189900000Y-105400000D03*
D15*
X177750000Y-112700000D03*
X176250000Y-112700000D03*
X172200000Y-125000000D03*
X170700000Y-125000000D03*
D14*
X174300000Y-118300000D03*
X174300000Y-119800000D03*
X174300000Y-122850000D03*
X174300000Y-121350000D03*
D13*
X180600000Y-117600000D03*
X176600000Y-117600000D03*
D14*
X176500000Y-123850000D03*
X176500000Y-125350000D03*
X178000000Y-123850000D03*
X178000000Y-125350000D03*
D34*
X175900000Y-119900000D03*
X177800000Y-119900000D03*
X177800000Y-122100000D03*
X175900000Y-122100000D03*
D25*
X174750000Y-113450000D03*
X174750000Y-111950000D03*
X169100000Y-123450000D03*
X169100000Y-124950000D03*
D10*
X170450000Y-123500000D03*
X171950000Y-123500000D03*
D25*
X179550000Y-123850000D03*
X181100000Y-123900000D03*
X179600000Y-121150000D03*
X181200000Y-121150000D03*
X181200000Y-119650000D03*
D35*
X181603500Y-108005000D03*
X176396500Y-108005000D03*
X181603500Y-106735000D03*
X176396500Y-106735000D03*
X181603500Y-105465000D03*
X176396500Y-105465000D03*
X181603500Y-104195000D03*
X176396500Y-104195000D03*
D36*
X169900000Y-120200000D03*
X172520000Y-120200000D03*
X172520000Y-121150000D03*
X172520000Y-122100000D03*
X169900000Y-121150000D03*
X169900000Y-122100000D03*
D34*
X184850000Y-105400000D03*
X186750000Y-105400000D03*
D37*
X169200000Y-117950000D03*
X172300000Y-117950000D03*
D14*
X185100000Y-108250000D03*
X185100000Y-109750000D03*
D17*
G36*
X186127728Y-121600521D02*
G01*
X185562043Y-122166206D01*
X184324606Y-120928769D01*
X184890291Y-120363084D01*
X186127728Y-121600521D01*
G37*
G36*
X187966206Y-119762043D02*
G01*
X187400521Y-120327728D01*
X186163084Y-119090291D01*
X186728769Y-118524606D01*
X187966206Y-119762043D01*
G37*
D38*
X184271573Y-122219239D02*
X184483705Y-122007107D01*
X187807107Y-118683705D02*
X188019239Y-118471573D01*
D39*
X185774174Y-124923922D02*
X185385266Y-124535014D01*
X190723922Y-119974174D02*
X190335014Y-119585266D01*
D40*
X124250000Y-86675000D03*
X128060000Y-86675000D03*
X121750000Y-81475000D03*
X123020000Y-81475000D03*
X124290000Y-81475000D03*
X126830000Y-81475000D03*
X130650000Y-81475000D03*
D23*
X128900000Y-55970000D03*
D24*
X128900000Y-58510000D03*
X128900000Y-61050000D03*
D41*
X138425000Y-49575000D03*
D10*
X139925000Y-49575000D03*
D42*
X102075000Y-73425000D03*
X104875000Y-73425000D03*
X100175000Y-80825000D03*
X112375000Y-80825000D03*
X102975000Y-80825000D03*
D43*
X104075000Y-77125000D03*
D31*
X151625000Y-56275000D03*
X151625000Y-60275000D03*
D44*
X156350000Y-36980000D03*
D45*
X156350000Y-39520000D03*
D37*
X138150000Y-74890000D03*
X141250000Y-74890000D03*
D46*
X142870000Y-80070000D03*
X145570000Y-80070000D03*
D47*
X143650000Y-75950000D03*
X143650000Y-73250000D03*
D48*
X115505000Y-37220000D03*
X115505000Y-39120000D03*
X118905000Y-38170000D03*
D36*
X138440000Y-77025000D03*
X141060000Y-77025000D03*
X141060000Y-77975000D03*
X141060000Y-78925000D03*
X138440000Y-77975000D03*
X138440000Y-78925000D03*
D49*
X142825000Y-42025000D03*
X145425000Y-42025000D03*
X142825000Y-41075000D03*
X142825000Y-40125000D03*
X145425000Y-40125000D03*
X145425000Y-41075000D03*
X134775000Y-37425000D03*
X134775000Y-36475000D03*
X132175000Y-36475000D03*
X132175000Y-37425000D03*
X134775000Y-38375000D03*
X132175000Y-38375000D03*
D50*
X106350000Y-85800000D03*
X106450000Y-70850000D03*
D51*
X111150000Y-73250000D03*
X111150000Y-83400000D03*
D49*
X129175000Y-41950000D03*
X126575000Y-41950000D03*
X129175000Y-42900000D03*
X129175000Y-43850000D03*
X126575000Y-43850000D03*
X126575000Y-42900000D03*
D26*
X101375000Y-46950000D03*
D27*
X101375000Y-44050000D03*
D26*
X101375000Y-41150000D03*
X101375000Y-38500000D03*
D27*
X101375000Y-35600000D03*
D26*
X101375000Y-32700000D03*
D52*
X151425000Y-41800000D03*
X151425000Y-34800000D03*
D53*
X153925000Y-40550000D03*
X153925000Y-36050000D03*
D51*
X133760000Y-58500000D03*
X133760000Y-55960000D03*
X133760000Y-53420000D03*
X133760000Y-50880000D03*
X133760000Y-61040000D03*
X133760000Y-63580000D03*
X133760000Y-66120000D03*
X131220000Y-50880000D03*
X128680000Y-50880000D03*
X126140000Y-50880000D03*
X123600000Y-50880000D03*
X121060000Y-50880000D03*
X118520000Y-50880000D03*
X115980000Y-50880000D03*
X113440000Y-50880000D03*
X110900000Y-50880000D03*
X108360000Y-50880000D03*
X105820000Y-50880000D03*
X103280000Y-50880000D03*
X100740000Y-50880000D03*
X131220000Y-66120000D03*
X128680000Y-66120000D03*
X126140000Y-66120000D03*
X123600000Y-66120000D03*
X121060000Y-66120000D03*
X118520000Y-66120000D03*
X115980000Y-66120000D03*
X113440000Y-66120000D03*
X110900000Y-66120000D03*
X108360000Y-66120000D03*
X105820000Y-66120000D03*
X103280000Y-66120000D03*
X100740000Y-66120000D03*
D14*
X141060000Y-80120000D03*
X141060000Y-81620000D03*
D15*
X142670000Y-78140000D03*
X144170000Y-78140000D03*
D14*
X147310000Y-80070000D03*
X147310000Y-81570000D03*
X147025000Y-73675000D03*
X147025000Y-75175000D03*
X145500000Y-73675000D03*
X145500000Y-75175000D03*
X139925000Y-46625000D03*
X139925000Y-48125000D03*
D15*
X146975000Y-40125000D03*
X148475000Y-40125000D03*
X144600000Y-38625000D03*
X146100000Y-38625000D03*
X136275000Y-34950000D03*
X134775000Y-34950000D03*
X136275000Y-36475000D03*
X137775000Y-36475000D03*
X128600000Y-39850000D03*
X123950000Y-38350000D03*
X125450000Y-38350000D03*
X124575000Y-61050000D03*
D14*
X135250000Y-41600000D03*
X135250000Y-40100000D03*
D15*
X123550000Y-43850000D03*
X125050000Y-43850000D03*
X126575000Y-45500000D03*
X128075000Y-45500000D03*
D25*
X136670000Y-77430000D03*
X136670000Y-78930000D03*
X147900000Y-59575000D03*
X147900000Y-58075000D03*
X149575000Y-59575000D03*
X149575000Y-58075000D03*
D10*
X139925000Y-43575000D03*
X138425000Y-43575000D03*
X141400000Y-45150000D03*
X139900000Y-45150000D03*
X139925000Y-42025000D03*
X141425000Y-42025000D03*
X146825000Y-42150000D03*
X148325000Y-42150000D03*
X139925000Y-40125000D03*
X141425000Y-40125000D03*
X137700000Y-38375000D03*
X136200000Y-38375000D03*
X128300000Y-38375000D03*
X126800000Y-38375000D03*
X114005000Y-35395000D03*
X115505000Y-35395000D03*
X119450000Y-40900000D03*
X117950000Y-40900000D03*
D25*
X113255000Y-38745000D03*
X113255000Y-37245000D03*
X151525000Y-46250000D03*
X151525000Y-47750000D03*
X117250000Y-69500000D03*
X117250000Y-71000000D03*
X119025000Y-71025000D03*
X119025000Y-69525000D03*
D10*
X132150000Y-41950000D03*
X130650000Y-41950000D03*
D25*
X133725000Y-41600000D03*
X133725000Y-43100000D03*
D10*
X132175000Y-40100000D03*
X133675000Y-40100000D03*
X123600000Y-40275000D03*
X125100000Y-40275000D03*
X123600000Y-41950000D03*
X125100000Y-41950000D03*
X130575000Y-44550000D03*
X132075000Y-44550000D03*
D17*
G36*
X153101777Y-74415507D02*
G01*
X155859493Y-77173223D01*
X152748223Y-80284493D01*
X149990507Y-77526777D01*
X153101777Y-74415507D01*
G37*
D10*
X141425000Y-51075000D03*
X139925000Y-51075000D03*
D54*
X147475000Y-63310000D03*
X147475000Y-65850000D03*
X147475000Y-68390000D03*
X147475000Y-70930000D03*
D55*
X118550000Y-73500000D03*
X118550000Y-43500000D03*
D45*
X139820000Y-55960000D03*
X139820000Y-58500000D03*
X139820000Y-61040000D03*
X137280000Y-61040000D03*
X137280000Y-58500000D03*
X137280000Y-55960000D03*
D10*
X170050000Y-86300000D03*
D14*
X174500000Y-80350000D03*
D12*
X164425000Y-85250000D03*
D11*
X165925000Y-92050000D03*
D12*
X164425000Y-90450000D03*
X191425000Y-90450000D03*
D11*
X189925000Y-91950000D03*
X189825000Y-35750000D03*
D12*
X191425000Y-37350000D03*
D11*
X165925000Y-35650000D03*
D12*
X164425000Y-37150000D03*
D11*
X183725000Y-92050000D03*
D12*
X164425000Y-48980000D03*
X164425000Y-42935000D03*
X191395000Y-85250000D03*
X191395000Y-79205000D03*
X191395000Y-73160000D03*
X191395000Y-67115000D03*
X191395000Y-61070000D03*
X191395000Y-55025000D03*
X191395000Y-48980000D03*
X191395000Y-42935000D03*
X164425000Y-54950000D03*
D49*
X171930000Y-84970000D03*
X174530000Y-84970000D03*
X171930000Y-84020000D03*
X171930000Y-83070000D03*
X174530000Y-83070000D03*
X174530000Y-84020000D03*
D25*
X173550000Y-42350000D03*
X173550000Y-43850000D03*
D31*
X184250000Y-80550000D03*
X184250000Y-84550000D03*
D15*
X184550000Y-62900000D03*
X186050000Y-62900000D03*
D14*
X173200000Y-80350000D03*
D56*
X180825000Y-43895000D03*
X175425000Y-43895000D03*
X180825000Y-45165000D03*
X175425000Y-45165000D03*
X180825000Y-46435000D03*
X175425000Y-46435000D03*
X180825000Y-47705000D03*
X175425000Y-47705000D03*
D17*
G36*
X188900000Y-93650000D02*
G01*
X188900000Y-97550000D01*
X184500000Y-97550000D01*
X184500000Y-93650000D01*
X188900000Y-93650000D01*
G37*
D49*
X174575000Y-71110000D03*
X174575000Y-70160000D03*
X171975000Y-70160000D03*
X171975000Y-71110000D03*
X174575000Y-72060000D03*
X171975000Y-72060000D03*
D31*
X181850000Y-80550000D03*
X181850000Y-84550000D03*
D20*
X168930000Y-79810000D03*
X170830000Y-79810000D03*
D14*
X174600000Y-68250000D03*
X177700000Y-71510000D03*
X177700000Y-73010000D03*
X179320000Y-73010000D03*
X179320000Y-71510000D03*
X173250000Y-67050000D03*
D19*
X167640000Y-68450000D03*
X167640000Y-66550000D03*
D15*
X170550000Y-63450000D03*
X172050000Y-63450000D03*
D20*
X169700000Y-58850000D03*
X167800000Y-58850000D03*
D14*
X177450000Y-48090000D03*
X178800000Y-48100000D03*
D15*
X185460000Y-50980000D03*
X183960000Y-50980000D03*
D14*
X179000000Y-39400000D03*
X179000000Y-40900000D03*
X188450000Y-72900000D03*
X188450000Y-71400000D03*
X182200000Y-68200000D03*
X182200000Y-66700000D03*
X188400000Y-65100000D03*
X188400000Y-66600000D03*
X183200000Y-74950000D03*
X183200000Y-73450000D03*
D15*
X168350000Y-46400000D03*
X187850000Y-46500000D03*
X168350000Y-45000000D03*
X187850000Y-45000000D03*
X168300000Y-37900000D03*
X169800000Y-37900000D03*
X187750000Y-38000000D03*
X186250000Y-38000000D03*
X168300000Y-39300000D03*
X187750000Y-39400000D03*
D21*
X175755000Y-89295000D03*
X178155000Y-90245000D03*
X178155000Y-88345000D03*
D57*
X178430000Y-83070000D03*
X168000000Y-84700000D03*
X178450000Y-69250000D03*
X168000000Y-71800000D03*
D23*
X194100000Y-57510000D03*
D24*
X194100000Y-60050000D03*
X194100000Y-62590000D03*
X194100000Y-65130000D03*
X194100000Y-67670000D03*
X194100000Y-70210000D03*
D25*
X182800000Y-61050000D03*
X173450000Y-61050000D03*
X173450000Y-59550000D03*
D10*
X179950000Y-61000000D03*
X176450000Y-61000000D03*
X174505000Y-89295000D03*
X173005000Y-89295000D03*
D25*
X174550000Y-86395000D03*
X174550000Y-87895000D03*
D10*
X173000000Y-86400000D03*
X171500000Y-86400000D03*
X170430000Y-83070000D03*
X168930000Y-83070000D03*
X168050000Y-81400000D03*
X169550000Y-81400000D03*
X170000000Y-76650000D03*
X171500000Y-76650000D03*
D25*
X171975000Y-75060000D03*
X171975000Y-73560000D03*
X176170000Y-72060000D03*
X176170000Y-70560000D03*
D10*
X173525000Y-73760000D03*
X175025000Y-73760000D03*
X170675000Y-70160000D03*
X169175000Y-70160000D03*
D25*
X169100000Y-68660000D03*
X169100000Y-70160000D03*
D10*
X170550000Y-66500000D03*
X172050000Y-66500000D03*
X170550000Y-64950000D03*
X172050000Y-64950000D03*
X167800000Y-63150000D03*
X169300000Y-63150000D03*
X167650000Y-64750000D03*
X166150000Y-64750000D03*
D25*
X167800000Y-61700000D03*
X167800000Y-60200000D03*
D10*
X169550000Y-60650000D03*
X171050000Y-60650000D03*
X173700000Y-49600000D03*
X172200000Y-49600000D03*
X173730000Y-47880000D03*
X172230000Y-47880000D03*
D25*
X173530000Y-45020000D03*
X173530000Y-46520000D03*
D10*
X173650000Y-37900000D03*
X172150000Y-37900000D03*
X172050000Y-41000000D03*
X173550000Y-41000000D03*
X176420000Y-56750000D03*
X179850000Y-56780000D03*
D25*
X182600000Y-42350000D03*
X182600000Y-43850000D03*
D10*
X182600000Y-41000000D03*
X184100000Y-41000000D03*
X182840000Y-58270000D03*
X184050000Y-38100000D03*
X182550000Y-38100000D03*
D25*
X182660000Y-46560000D03*
X182660000Y-45060000D03*
D10*
X182460000Y-49470000D03*
X183960000Y-49470000D03*
X182460000Y-47910000D03*
X183960000Y-47910000D03*
D25*
X177500000Y-40900000D03*
X177500000Y-39400000D03*
X184700000Y-74900000D03*
X184700000Y-73400000D03*
D10*
X184550000Y-64500000D03*
X186050000Y-64500000D03*
X185600000Y-68900000D03*
X184100000Y-68900000D03*
X187850000Y-49550000D03*
X168350000Y-47900000D03*
X187850000Y-48000000D03*
D28*
X171600000Y-95250000D03*
D29*
X174500000Y-95250000D03*
D28*
X177400000Y-95250000D03*
D26*
X161180000Y-79600000D03*
D27*
X161180000Y-76700000D03*
D26*
X161180000Y-73800000D03*
X161190000Y-67650000D03*
D27*
X161190000Y-64750000D03*
D26*
X161190000Y-61850000D03*
D28*
X176550000Y-32500000D03*
D29*
X173650000Y-32500000D03*
D28*
X170750000Y-32500000D03*
X179650000Y-32550000D03*
D29*
X182550000Y-32550000D03*
D28*
X185450000Y-32550000D03*
D58*
X184630000Y-66600000D03*
X185900000Y-66600000D03*
X187170000Y-66600000D03*
X183360000Y-66600000D03*
X187170000Y-71400000D03*
X185900000Y-71400000D03*
X184630000Y-71400000D03*
X183360000Y-71400000D03*
D10*
X171200000Y-78250000D03*
X169700000Y-78250000D03*
D14*
X174900000Y-40200000D03*
X174900000Y-38700000D03*
X181300000Y-38850000D03*
X181300000Y-40350000D03*
D13*
X176760000Y-53370000D03*
X179540000Y-53390000D03*
M02*
